<?xml version="1.0" standalone="no"?>
<!DOCTYPE svg PUBLIC "-//W3C//DTD SVG 1.1//EN" "http://www.w3.org/Graphics/SVG/1.1/DTD/svg11.dtd" >
<svg xmlns="http://www.w3.org/2000/svg" xmlns:xlink="http://www.w3.org/1999/xlink" version="1.1">
<metadata>
Created by FontForge 20170731 at Fri Apr  7 04:00:00 2000
 By Aleksey,,,
(c) 2000 by ck! -- http://come.to/freakyfonts
</metadata>
<defs>
<font id="LastNinja" horiz-adv-x="819" >
  <font-face 
    font-family="Last Ninja"
    font-weight="400"
    font-stretch="normal"
    units-per-em="2048"
    panose-1="2 11 5 0 0 0 0 0 0 0"
    ascent="1638"
    descent="-410"
    x-height="1878"
    cap-height="1880"
    bbox="0 -164 4092 2580"
    underline-thickness="50"
    underline-position="-175"
    unicode-range="U+0020-2122"
  />
<missing-glyph horiz-adv-x="1536" 
d="M256 0v1280h1024v-1280h-1024zM1247 33v1214h-958v-1214h958z" />
    <glyph glyph-name=".notdef" horiz-adv-x="1536" 
d="M256 0v1280h1024v-1280h-1024zM1247 33v1214h-958v-1214h958z" />
    <glyph glyph-name=".null" horiz-adv-x="0" 
 />
    <glyph glyph-name="nonmarkingreturn" horiz-adv-x="0" 
 />
    <glyph glyph-name="space" unicode=" " horiz-adv-x="1638" 
 />
    <glyph glyph-name="exclam" unicode="!" 
d="M168 1139v469q-42 18 -56 41.5t-14 58.5q0 31 45 57q23 15 109 47q45 19 144 39.5t145 20.5q84 0 84 -72q0 -48 -41 -82v-1085q0 -26 -18 -39.5t-36 -11.5q-73 2 -141 10q-32 4 -86.5 72t-95.5 181.5t-41 244.5q0 32 2 49zM205 205q0 55 27 102t74.5 75t103.5 28
q55 0 102.5 -28t74.5 -75t27 -102q0 -56 -27.5 -103t-74.5 -74.5t-102 -27.5q-56 0 -103 27.5t-74.5 74.5t-27.5 103z" />
    <glyph glyph-name="quotedbl" unicode="&#x22;" horiz-adv-x="1434" 
d="M819 1638q0 56 27.5 103t74.5 74.5t103 27.5t103 -27.5t74.5 -74.5t27.5 -103q0 -55 -49 -144t-116.5 -156.5t-121.5 -67.5q7 13 18 41.5t11 64.5q0 49 -29 74q-56 24 -89.5 74.5t-33.5 113.5zM205 1638q0 56 27.5 103t74.5 74.5t103 27.5q55 0 102 -27.5t74.5 -74.5
t27.5 -103q0 -55 -49 -144t-116.5 -156.5t-120.5 -67.5q7 13 17.5 43t10.5 63q0 49 -28 74q-56 24 -89.5 74.5t-33.5 113.5z" />
    <glyph glyph-name="numbersign" unicode="#" horiz-adv-x="1884" 
d="M862 887q0 -36 25 -61t61 -25q38 0 63 25t25 61t-25 60t-63 24q-36 0 -61 -24t-25 -60zM854 698l-94 95l-297 -64l-297 158l297 155l297 -63l94 94l-61 299l155 297l158 -297l-64 -299l95 -94l297 63l299 -155l-299 -158l-297 64l-95 -95l64 -299l-158 -297l-155 297z
" />
    <glyph glyph-name="dollar" unicode="$" horiz-adv-x="4096" 
d="M924 303v-33h30v33h-30zM991 268v-16h49v16h-49zM924 252v-33h30v33h-30zM991 233v-26h49v26h-49zM924 201v-33h30v33h-30zM991 186v-53h49v53h-49zM924 150v-33h30v33h-30zM924 96v-30h30v30h-30zM3891 133q14 0 55.5 19.5t65.5 33.5h-2947v-53h2826zM424 106h-131
q-7 -14 -25 -14q-15 0 -26 14h-226q0 24 -16 35v101q5 2 10.5 11t5.5 23h35q8 15 27 15t24 -15h140q8 15 26 15q20 0 25 -15h147q8 15 27 15q18 0 25 -15h151q8 15 27 15t24 -15h211v78h68v-69h82l20 -17h3017q-4 -36 -45 -72t-88 -58.5t-60 -22.5h-2824l-20 -17h-82v-67
h-68v75h-33q-10 -14 -28 -14q-16 0 -27 14h-131q-7 -14 -24 -14q-16 0 -27 14h-160q-7 -14 -24 -14q-16 0 -27 14zM1065 256v-16h2986l16 16h-3002zM57 266l179 -147l57 2l-178 145h-58zM246 266l176 -147h51q-1 0 -67.5 55t-110.5 92h-49zM446 266q3 -7 72 -59.5l115 -87.5
h51l-186 147h-52zM645 266l172 -147h55l-176 147h-51z" />
    <glyph glyph-name="percent" unicode="%" 
 />
    <glyph glyph-name="ampersand" unicode="&#x26;" horiz-adv-x="4096" 
d="M3609 1532h-33q0 38 -25 51q-22 0 -40.5 -6.5t-57.5 -24t-57.5 -23t-40.5 -5.5q1 11 14 38.5t14 45.5q-45 -1 -74 -27t-65 -71.5t-55 -45.5q1 23 17 70t16 74q-53 -1 -96 -25t-110.5 -69.5t-90.5 -47.5q0 13 13 39t13 43q-21 0 -48 -18.5t-60.5 -48t-60 -45t-54.5 -15.5
q-15 0 -30.5 16.5t-24.5 18.5l-13 -6q-23 -23 -37 -82.5t-32.5 -86t-79.5 -26.5q-12 0 -43 31l-14 4l-13 -4q-16 -27 -32.5 -83.5t-41 -82.5t-86.5 -26l-83 86l-15 -11q0 -10 7.5 -55t7.5 -70l-46 -88l99 -51v-20l-121 30l-33 -63q0 -27 17 -27l8 2q14 10 26 25h25
q15 -12 25 -25q4 -1 30 -13t37 -13q19 -85 19 -135q0 -54 -19 -113q22 -4 35.5 -30t15.5 -54q-123 20 -268 20q-43 0 -129 -8t-131 -8q0 23 16.5 62t16.5 63q0 19 -14.5 43.5t-14.5 36.5q0 53 30 113t80 101.5t105 41.5v27q-86 3 -100.5 24.5t-32.5 81t-68 59.5
q-17 0 -43 -32l-32 -2q0 26 30.5 56.5t57.5 55.5l-11 19q-18 0 -61.5 -9.5t-60.5 -9.5l-31 82l-23 27q-4 8 -4 14q0 7 4.5 14t11 13.5l11.5 11.5l-2 23q-31 -1 -89 -38.5t-98 -37.5q-18 37 -20 60.5t-27 28.5t-76 13q-2 6 -4 10t-2 7q0 17 4.5 43.5t4.5 44.5l-33 10
q-9 -96 -35 -96q-8 0 -38 20t-48 35q-3 15 -13 36.5t-20 22.5q-17 -10 -33 -16q-48 24 -75 27q-30 -16 -41 -27l-17 -2q-16 0 -50 14.5t-58 14.5q-22 0 -63.5 -17.5t-61.5 -17.5q0 13 12 39t12 41q-36 0 -99.5 -15t-90.5 -16v10q0 51 35 67t105 19.5t99.5 10t36.5 40.5
q31 13 95 13q40 0 151 -13q29 -37 58.5 -40t42 -13.5t34.5 -83.5l17 -6q12 1 24.5 35t14.5 53q22 10 77 10q99 0 168 -10q9 -26 31.5 -32.5t69 -8.5t67.5 -11t21 -40l49 7t55 5q38 0 74 -8l8 -53l41 49q12 6 31 6q16 0 39 -6q9 -103 41 -103q12 0 47 40t45 46q18 9 81 12
t100 13t38 43q73 12 150 12q57 0 92 -12l28 41q56 10 144 10t88 -18q0 -15 -6.5 -34t-6.5 -32l9 -4q38 11 86 54.5t98.5 67.5t155.5 24q96 0 161 -13q33 -43 82 -84q138 -31 138 -104zM1667 541q0 -63 -12 -103q-90 4 -135 8q-12 14 -20.5 24.5t-18 18t-25.5 7.5
q-29 0 -72 -15q-37 39 -77 39q-14 0 -29.5 -20.5t-30.5 -20.5q-10 0 -27.5 12.5t-29.5 12.5q-23 0 -47 -19v-41q67 -2 108.5 -5t89.5 -15l-61 -31q-37 -4 -73 -11.5t-73.5 -16t-76.5 -15.5q-229 -31 -449 -31q-70 0 -200.5 13t-239.5 44t-109 83l2 16q31 23 31 41
q0 12 -17.5 27.5t-17.5 27.5q0 10 10 19.5t19 17.5v29l-25 27v16q0 35 70 64.5t160.5 47t126.5 17.5q0 -15 -12 -42t-13 -40q66 0 113 43t47 104q0 11 -4 31l8 8q13 -2 32 -18t34 -16q12 0 34 82l15 4l10 -4q10 -106 19 -155t32.5 -80.5t69 -50.5t141.5 -42
q42 -8 87.5 -16.5t78.5 -8.5q53 0 88 39.5t69.5 117.5t39.5 87q10 2 39 2q19 0 67 -71t99 -159.5t65 -123.5q13 -13 22 -13q15 0 15 25q10 42 10 72q0 124 -52 214.5t-159 178.5q-58 -10 -115 -10q-113 0 -208 22q-32 29 -115.5 49.5t-174.5 29.5t-147 9q-54 0 -104 -6
q-14 -21 -86 -67.5t-147 -85t-103 -41.5q5 21 25.5 44.5t45.5 46.5t25 29q0 15 -15.5 32.5t-17.5 29.5q122 104 226 152.5t241 48.5q131 0 277.5 -38.5t279.5 -113t228.5 -181t126.5 -235.5q12 -51 12 -151zM3992 807l-7 -35q-28 -19 -28 -37q0 -16 15 -41t15 -43
q0 -19 -15 -44t-15 -38q0 -14 16.5 -40.5t16.5 -45.5q0 -54 -59 -85t-126.5 -41t-144.5 -15q-27 -16 -107 -16q-127 0 -262.5 6.5t-249.5 15.5q-31 3 -83.5 12t-93.5 16.5t-75 12t-77 4.5l-58 43q87 -10 203 -10q68 0 100 10q12 11 56 64l-11 22q-17 -1 -43.5 -11.5
t-42.5 -10.5q-18 0 -54 16t-54 16t-49 -15t-47 -17l-25 32h-14q-31 0 -69.5 -38.5t-62 -55t-87.5 -16.5h-13q-20 30 -20 96q0 79 24.5 176.5t71 177.5t113.5 121q12 24 117.5 83t191.5 100q189 86 373 86q111 0 218 -24.5t197 -78.5t148 -143q42 -65 47 -94
q-53 10 -127 49.5t-130 73t-116.5 57.5t-120.5 24q-48 0 -94.5 -10t-102.5 -29t-115 -41.5t-79 -29.5q-44 -15 -93 -24t-103 -13t-113.5 -7.5t-93.5 -6.5q-75 -96 -117.5 -183.5t-42.5 -183.5q0 -90 20 -90q11 0 47 73.5t64.5 126t74.5 99.5t103 47q7 -50 35 -104t66 -86
q50 -11 118 -11q88 0 189 15t139 49q31 71 31 168q0 41 -13 86q68 0 138.5 -23t70.5 -76q0 -17 -10 -52t-10 -56q20 4 55.5 34t60 45t66.5 15q0 -17 -11.5 -41t-12.5 -39l22 -6q14 29 39 29q18 0 55.5 -15.5t53.5 -15.5q23 0 64 18t63 19zM3072 887q0 -17 -15.5 -25
t-29.5 -8q-51 0 -51 35q0 17 18 26t35 9q15 0 29 -11.5t14 -25.5zM1067 889q0 -35 -45 -35q-15 0 -30 9.5t-15 25.5q0 14 13.5 24.5t27.5 10.5q17 0 33 -8.5t16 -26.5zM1530 586l-10 12q-13 -4 -50 -4q-101 0 -168 4t-135 20l-22 -8q42 -8 87 -13t73.5 -7t83.5 -4t81 -2
q39 0 60 2zM2886 637l-13 12q-32 -10 -92 -10h-55q-87 0 -123 25l-14 -13q47 -11 86.5 -18.5t81.5 -7.5h39q53 0 90 12zM3013 717h-84v33h84v-33zM768 680l-16 14q-36 1 -80.5 11t-81 21.5t-90.5 27.5l-17 -9q43 -9 135 -32.5t150 -32.5zM3084 471l-55 6l-18 -35l65 -2z
M3533 772q-64 -22 -106 -34t-89 -13l-10 -20q115 24 203 57zM2382 1323l-47 18v-28l41 -19zM1065 442v43l-29 7v-46zM2169 1208l-55 37v-28l47 -25zM856 772h-37v35h37v-35zM3279 772h-27v33h27v-33zM3498 584l-27 4l-2 -35l27 -2z" />
    <glyph glyph-name="quotesingle" unicode="'" 
d="M205 1638q0 56 27.5 103t74.5 74.5t103 27.5q55 0 102 -27.5t74.5 -74.5t27.5 -103q0 -55 -49 -144t-116.5 -156.5t-120.5 -67.5q7 13 17.5 43t10.5 63q0 49 -28 74q-56 24 -89.5 74.5t-33.5 113.5z" />
    <glyph glyph-name="parenleft" unicode="(" horiz-adv-x="1311" 
d="M1047 0q-91 0 -175.5 19.5t-164.5 58.5q-156 78 -267 207q-112 131 -174 301q-61 170 -61 356q0 184 61 354q62 170 173.5 299t267.5 209q152 76 340 76q22 -11 55 -42.5t33 -80.5q0 -66 -88 -135q-126 0 -211 -39q-91 -41 -146 -113q-57 -75 -84 -176q-26 -102 -26 -221
t26 -219q27 -102 84 -174q55 -76 146 -115q93 -41 211 -41q41 -1 72 -41t48 -103.5t17 -131.5q0 -61 -14.5 -116.5t-45 -90.5t-77.5 -41z" />
    <glyph glyph-name="parenright" unicode=")" horiz-adv-x="1311" 
d="M260 0q-67 9 -101 78t-34 166q0 108 38.5 193.5t100.5 86.5q118 0 211 41q90 39 146 115q57 72 84 174q26 100 26 219t-26.5 220.5t-83.5 176.5q-56 72 -146 113q-85 39 -211 39q-88 69 -88 135q0 49 33 80.5t55 42.5q188 0 340 -76q156 -80 266 -209q113 -129 174 -299
q62 -170 62 -354q0 -186 -62 -356q-61 -170 -174 -301q-110 -129 -266 -207t-344 -78z" />
    <glyph glyph-name="asterisk" unicode="*" horiz-adv-x="1966" 
d="M893 872q0 -36 26 -62t64 -26q39 0 66.5 25.5t27.5 62.5q0 38 -27.5 63.5t-66.5 25.5q-38 0 -64 -26t-26 -63zM1235 807q-13 -48 -41 -80l143 -72l219 -356l-360 221l-70 144q-35 -22 -77 -31l98 -285l-164 -295l-164 295l99 285q-38 10 -76 33l-62 -160l-370 -207
l221 356l145 76q-24 31 -35 76l-282 -98l-295 163l295 164l282 -98q14 46 35 76l-141 76l-225 356l366 -219l66 -148q36 25 76 33l-99 285l164 295l164 -295l-98 -285q42 -9 77 -31l70 146l360 219l-219 -356l-143 -72q29 -37 41 -80l272 98l295 -164l-295 -163z" />
    <glyph glyph-name="plus" unicode="+" horiz-adv-x="1966" 
d="M172 1159q30 -62 105 -99.5t161 -37.5q141 0 244.5 90.5t103.5 263.5l-4 86q0 64 50 136t121.5 120.5t131.5 48.5q103 0 115 -6q-43 -18 -94 -104.5t-51 -136.5q0 -88 35.5 -176t104 -146.5t161.5 -58.5h131q59 0 132.5 -47.5t124 -120t50.5 -137.5l-6 -86
q-54 66 -127.5 99.5t-153.5 33.5q-87 0 -166.5 -38.5t-127.5 -105.5t-48 -151q0 -217 -82.5 -327t-279.5 -120h-53q48 22 100.5 107t52.5 137q0 66 -18 132.5t-57 125t-95.5 92t-130.5 33.5h-133q-59 0 -132.5 49.5t-123 121.5t-49.5 132zM856 954q0 -50 36.5 -86.5
t86.5 -36.5q52 0 87.5 36.5t35.5 86.5q0 52 -35.5 87.5t-87.5 35.5q-50 0 -86.5 -35.5t-36.5 -87.5z" />
    <glyph glyph-name="comma" unicode="," 
d="M205 205q0 55 27 102t74.5 75t103.5 28q55 0 102.5 -28t74.5 -75t27 -102q0 -57 -49 -146t-116.5 -156t-120.5 -67q7 13 17.5 43t10.5 64q0 48 -28 73q-57 25 -90 75.5t-33 113.5z" />
    <glyph glyph-name="hyphen" unicode="-" horiz-adv-x="1802" 
d="M1653 885q-48 -38 -88.5 -58t-91.5 -20q-108 3 -226 14t-235.5 30.5t-193.5 33.5t-89 16q-129 21 -225 21q-130 0 -221 -25.5t-205 -75.5q0 17 -0.5 27t-1.5 22q0 133 33.5 207t70 97.5t70.5 33.5q45 35 223 35q88 0 180 -7t167.5 -15.5t101.5 -14.5q71 -16 214 -37.5
t289 -21.5q232 0 322 74q0 -83 -27.5 -186.5t-66.5 -149.5z" />
    <glyph glyph-name="period" unicode="." 
d="M205 205q0 55 27 102t74.5 75t103.5 28q55 0 102.5 -28t74.5 -75t27 -102q0 -56 -27.5 -103t-74.5 -74.5t-102 -27.5q-56 0 -103 27.5t-74.5 74.5t-27.5 103z" />
    <glyph glyph-name="slash" unicode="/" horiz-adv-x="1802" 
d="M166 139q-33 36 -33 84q0 33 14 51q238 377 922 1217q17 19 42.5 49t45.5 51t33 29q21 14 61 14q116 0 252 -108q4 -5 9.5 -18.5t5.5 -30.5q0 -32 -23 -56q-19 -37 -57 -93t-68 -64q-10 -14 -32.5 -21t-43.5 -14l-241 -352l-521 -826q-23 -47 -104 -47q-21 0 -37 4
q-61 6 -134 57t-91 74z" />
    <glyph glyph-name="zero" unicode="0" horiz-adv-x="1837" 
d="M76 938q0 186 61 356q62 170 174 301q111 129 267 207q153 78 340 78q186 0 341.5 -78t266.5 -207q110 -131 171.5 -301t61.5 -356q0 -184 -61.5 -354t-172 -299t-265.5 -209q-156 -76 -342 -76q-187 0 -340 76q-156 80 -267.5 209t-173.5 299q-61 170 -61 354zM451 807
q0 -119 26 -221q27 -101 84 -176q55 -72 146 -113q88 -39 211 -39q124 0 212 39q89 41 146 113q55 75 82 176q26 102 26 221t-26 219q-27 102 -82 174q-57 76 -146 115q-88 41 -212 41q-123 0 -211 -41q-91 -39 -146 -115q-57 -72 -84 -174q-26 -100 -26 -219z" />
    <glyph glyph-name="one" unicode="1" horiz-adv-x="698" 
d="M156 557v1053q-42 18 -56 41.5t-14 58.5q0 31 45 57q19 12 109 48q48 18 145.5 38.5t142.5 20.5q84 0 84 -72q0 -49 -41 -82v-1669q0 -27 -17.5 -40t-35.5 -11q-73 2 -141 10q-32 4 -86.5 72t-95.5 181.5t-41 244.5q0 33 2 49z" />
    <glyph glyph-name="two" unicode="2" horiz-adv-x="1888" 
d="M1544 399q37 15 67.5 34.5t50.5 36t32.5 25.5t25.5 9q41 0 41 -53q2 -17 2 -52q0 -72 -12 -147t-41 -133q-6 -15 -18.5 -30t-26.5 -29l-25 -25q-30 -35 -75 -35h-1352q-137 19 -137 188q0 38 7 77t11 54q12 40 61.5 142.5t167.5 261.5t338 346t533 344l-3 -3l-1 -1
q0 -2 6 19t6 36q0 37 -31 49q-135 62 -290 62q-107 0 -240.5 -30t-290.5 -99q-7 -3 -65 -39t-97 -55q-38 0 -38 37q0 21 6 41q40 145 121.5 236t169.5 133t155 50q22 10 71.5 21t141 19.5t197.5 8.5q194 0 418 -24q24 -2 83 -23.5t122.5 -57t111.5 -87.5q13 -13 27 -28
t26 -38t12 -49q0 -21 -12 -47q-419 -360 -629 -560.5t-280 -301.5t-72 -178q0 -56 59.5 -88.5t110.5 -32.5q28 -2 94 -5t148 -3q198 0 313 24z" />
    <glyph glyph-name="three" unicode="3" horiz-adv-x="1919" 
d="M74 1878h1751v-190l-471 -471q14 -7 58.5 -37t78.5 -52q53 -30 115 -73q61 -45 114 -105q54 -61 88 -139q35 -80 35 -178q0 -51 -12 -123t-36.5 -132.5t-61.5 -86.5q-24 -51 -112 -114t-182.5 -107.5t-125.5 -44.5q-185 -23 -400 -23q-124 0 -224.5 8.5t-168.5 24
t-88 35.5q-98 47 -177.5 139.5t-125 185.5t-45.5 125h190q12 -15 45.5 -64t67 -83t82.5 -60q187 -45 410 -45q92 0 182 8.5t146.5 20t62.5 18.5q33 12 56 53.5t34.5 90t11.5 88.5q0 17 -4 31q0 33 -6.5 58t-22 55.5t-22.5 45.5q-14 29 -45.5 55.5t-73.5 53.5q-61 41 -145 57
q-84 17 -187 17v63l447 449v63h-959q-4 -11 -20.5 -30t-28.5 -23q-4 -4 -22.5 -10.5t-28.5 -6.5q-18 0 -39 29q-20 29 -41 74q-11 25 -55 176t-45 174z" />
    <glyph glyph-name="four" unicode="4" horiz-adv-x="1870" 
d="M1180 807q-97 -44 -312.5 -67.5t-389 -29t-253.5 -5.5q-151 0 -151 108q0 46 20 90t33 64q77 116 195.5 230.5t252 216.5t272 190.5t259.5 150.5q14 8 88 30.5t78 24.5q43 18 136.5 35t143.5 17q84 0 84 -72q0 -49 -41 -82v-578q14 0 50.5 12.5t60.5 12.5q54 0 88 -65
q0 -83 -74.5 -116.5t-124.5 -39.5v-842q0 -31 -55.5 -61.5t-112.5 -30.5q-72 2 -100.5 6t-56.5 23q-20 17 -42 118t-37 244.5t-15 286.5q0 47 4 129zM1200 1049l41 450q-150 -80 -387.5 -225.5t-280.5 -233.5q-4 -8 -4 -12q0 -35 138 -35q107 0 262.5 20t230.5 36z" />
    <glyph glyph-name="five" unicode="5" horiz-adv-x="1917" 
d="M479 1268q117 0 278.5 -13t301.5 -32.5t260.5 -45t169.5 -49.5q23 -10 42 -22t36.5 -25.5t36.5 -25.5q61 -45 114 -105q54 -61 88 -139q35 -80 35 -178q0 -89 -28 -196.5t-82 -145.5q-24 -51 -112 -114t-182.5 -107.5t-125.5 -44.5q-185 -23 -400 -23q-124 0 -224.5 8.5
t-168.5 24t-88 35.5q-98 47 -177.5 139.5t-125 185.5t-45.5 125h190q12 -15 45.5 -64t67 -83t82.5 -60q187 -45 410 -45q92 0 182 8.5t146.5 20t62.5 18.5q33 12 56 53.5t34.5 90t11.5 88.5q0 17 -4 31q0 33 -6.5 58t-22 55.5t-22.5 45.5q-12 23 -30 39t-44 35t-45 35
q-67 62 -201.5 102t-283 59.5t-284 29t-142.5 10.5q-56 6 -209 6l-2 825h1751q-2 -31 -46 -179.5t-55 -170.5q-20 -45 -41 -74q-20 -29 -38 -29q-11 0 -29.5 6.5t-22.5 10.5q-10 4 -27.5 23t-21.5 30h-1065v-227z" />
    <glyph glyph-name="six" unicode="6" horiz-adv-x="1911" 
d="M492 995q79 41 196 62.5t256 21.5q107 0 226 -13.5t216 -37.5q66 -3 160.5 -62t170 -138.5t85.5 -127.5q4 -16 12 -46.5t14.5 -68.5t6.5 -73q0 -76 -29 -125q-5 -19 -41.5 -67t-94.5 -104.5t-128 -102.5t-137 -62q-18 -9 -78 -19t-144.5 -18.5t-201.5 -13.5
q-197 0 -363 70q-165 67 -286 194q-123 123 -191 291q-67 170 -67 371q0 139 25.5 263.5t72.5 207.5q96 180 260 289q49 33 108.5 60t127 49.5t141.5 41.5q154 39 319 39q344 0 621 -168q-5 -7 -61 -81t-112.5 -148.5t-68.5 -89.5q-78 75 -181.5 110t-217.5 35
q-156 0 -303 -55t-207 -123q-57 -64 -73 -137t-33 -224zM639 786q-64 -31 -64 -133q0 -83 36.5 -165t78.5 -99q10 -12 81 -25t175 -14q108 0 240 19q38 5 106 51.5t74 105.5q8 23 8 58q0 45 -8.5 86.5t-15.5 60.5q-40 45 -73 60.5t-79 23.5q-60 14 -154 14q-116 0 -233 -16
t-172 -27z" />
    <glyph glyph-name="seven" unicode="7" horiz-adv-x="1901" 
d="M1313 1432q20 17 20 34q0 14 -7.5 20.5t-12.5 8.5h-959q-4 -11 -20.5 -30t-28.5 -23q-4 -4 -22.5 -10.5t-28.5 -6.5q-18 0 -39 29q-20 29 -41 74q-11 25 -55 176t-45 174h1751v-190l-957 -1594q-9 -14 -11 -43t-20 -40t-83 -11q-336 0 -336 106q0 33 24.5 61.5t40.5 41.5
z" />
    <glyph glyph-name="eight" unicode="8" horiz-adv-x="1958" 
d="M229 1612q25 52 66 101.5t101 90t130 54.5q33 7 123 16.5t252 9.5q222 0 453 -26q21 -2 80.5 -23t125.5 -58.5t111 -86.5q41 -46 60 -78q22 -43 22 -115q0 -10 -5.5 -40t-6.5 -46q-34 -104 -104 -174t-129.5 -102.5t-86.5 -42.5q-8 -36 -8 -35q0 -10 35 -27.5t88 -46.5
t115 -68q59 -38 112 -92q54 -55 88 -123q35 -67 35 -153q0 -98 -31 -160q-7 -29 -71.5 -107t-152.5 -146t-177 -83q-21 -21 -217 -36t-397 -15q-129 0 -185 4q-144 24 -297.5 104.5t-187.5 133.5q-53 38 -74.5 132.5t-21.5 172.5q0 86 35 153q34 68 87.5 122.5t112.5 92.5
q62 39 115 68t88 46.5t35 27.5q0 -1 -8 35q-61 22 -167.5 98.5t-152.5 220.5q-1 16 -6.5 53.5t-5.5 32.5q0 72 22 115zM1198 1155q22 0 57 18t50 31q26 25 41 60q12 34 16 73q0 29 -4 68q-4 37 -17 72q-9 54 -55 87.5t-80 37.5q-79 12 -205 12q-108 0 -194.5 -11.5
t-95.5 -31.5q-31 -24 -52 -82.5t-28 -104.5q-1 -19 -1 -54t-1 -52q0 -34 25 -70.5t87 -52.5q31 -5 102.5 -12.5t155.5 -7.5q112 0 199 20zM1194 963q-87 20 -195 20q-81 0 -145.5 -7.5t-91.5 -12.5q-26 0 -56.5 -17t-53.5 -45t-23 -59q1 -17 1 -52.5t1 -54.5q10 -57 31 -106
q18 -49 49 -80q14 -17 86.5 -33t179.5 -16q80 0 205 16q27 4 69.5 17.5t53.5 23.5q35 31 41 43q12 35 16 74v133q-4 37 -16 72q-7 15 -23.5 27t-26.5 20q-14 12 -45.5 24.5t-56.5 12.5z" />
    <glyph glyph-name="nine" unicode="9" horiz-adv-x="1870" 
d="M1376 881q-49 -26 -119.5 -45.5t-155.5 -29t-177 -9.5q-224 0 -443 51q-65 3 -150.5 61.5t-153 137.5t-79.5 129q-8 39 -15 77t-7 84q0 91 35 152q8 30 59.5 105.5t128 142t164.5 88.5q28 14 152.5 29.5t271.5 21.5q196 0 362 -70q166 -67 287 -194q123 -123 190 -291
q68 -170 68 -371q0 -141 -25 -262.5t-73 -208.5q-97 -180 -260 -289q-78 -51 -167.5 -85t-209.5 -66q-156 -39 -320 -39q-343 0 -620 168q15 20 60 113t82.5 172.5t49.5 95.5q59 -56 131 -90t151.5 -49t166.5 -15q108 0 209 19.5t180.5 48.5t120.5 57q48 37 68.5 93.5
t26 124.5t11.5 143zM1229 1114q31 14 43 47t24 99q4 32 4 45q0 69 -37.5 120t-84.5 70q-10 12 -81 25t-175 14q-105 0 -240 -18q-37 -5 -105.5 -52t-74.5 -106q-8 -23 -8 -55q0 -66 24 -134q30 -33 54.5 -49t46 -22.5t51.5 -12.5q76 -18 204 -18q122 2 226.5 16.5
t128.5 30.5z" />
    <glyph glyph-name="colon" unicode=":" 
d="M205 958q0 56 27.5 103t74.5 74.5t103 27.5q55 0 102 -27.5t74.5 -74.5t27.5 -103q0 -55 -27.5 -102t-74.5 -74.5t-102 -27.5q-56 0 -103 27.5t-74.5 74.5t-27.5 102zM205 205q0 55 27 102t74.5 75t103.5 28q55 0 102.5 -28t74.5 -75t27 -102q0 -56 -27.5 -103
t-74.5 -74.5t-102 -27.5q-56 0 -103 27.5t-74.5 74.5t-27.5 103z" />
    <glyph glyph-name="semicolon" unicode=";" 
d="M205 958q0 56 27.5 103t74.5 74.5t103 27.5q55 0 102 -27.5t74.5 -74.5t27.5 -103q0 -55 -27.5 -102t-74.5 -74.5t-102 -27.5q-56 0 -103 27.5t-74.5 74.5t-27.5 102zM205 205q0 55 27 102t74.5 75t103.5 28q55 0 102.5 -28t74.5 -75t27 -102q0 -57 -49 -146t-116.5 -156
t-120.5 -67q7 13 17.5 43t10.5 64q0 48 -28 73q-57 25 -90 75.5t-33 113.5z" />
    <glyph glyph-name="equal" unicode="=" horiz-adv-x="1802" 
d="M1649 582q-54 -41 -91.5 -59.5t-89.5 -18.5q-108 3 -224 14t-235 30.5t-195 33.5t-89 16q-123 20 -225 20q-130 0 -223.5 -25.5t-202.5 -74.5q0 17 -0.5 27t-1.5 22q0 133 33.5 207t70 97.5t70.5 33.5q45 35 223 35q88 0 180 -7t167.5 -15.5t101.5 -14.5
q71 -16 214 -37.5t289 -21.5q232 0 322 74q0 -83 -27.5 -186.5t-66.5 -149.5zM1649 1237q-54 -41 -91.5 -59.5t-89.5 -18.5q-108 3 -224 14t-235 30.5t-195 33.5t-89 16q-120 21 -225 21q-130 0 -223.5 -25.5t-202.5 -74.5q0 16 -0.5 26.5t-1.5 22.5q0 105 21 171.5
t50.5 100.5t55.5 47t47 19q46 34 223 34q88 0 183 -7t167.5 -15t98.5 -14q69 -16 213 -38t290 -22q231 0 322 74q0 -57 -13 -124.5t-33.5 -122.5t-47.5 -89z" />
    <glyph glyph-name="question" unicode="?" horiz-adv-x="1794" 
d="M539 205q0 55 27 102t74.5 75t102.5 28q56 0 103.5 -28t74.5 -75t27 -102q0 -56 -27.5 -103t-74.5 -74.5t-103 -27.5q-55 0 -102 27.5t-74.5 74.5t-27.5 103zM1559 1243q-64 -91 -289 -141q-96 -19 -197.5 -33t-204.5 -22q-31 -4 -92 -8t-96 -13q-89 -19 -161 -48
t-77 -81q0 -29 35 -61q31 -24 66 -35q26 -11 82 -23t88 -12q58 -10 133 -10q150 0 248 26l-68 -184q-122 -4 -182 -4q-58 0 -129 2q-70 4 -142 14q-71 13 -137 31q-67 25 -119 55q-55 40 -84 82q-30 49 -30 119q0 36 7 51t34 51q13 17 26.5 27t32.5 19.5l47 23.5
q66 33 150 51q84 21 172 33t172 27q84 18 149 43q66 26 107 65q27 31 33 41t6 41q0 57 -27 88q-29 33 -70 49q-23 9 -85 20t-136 11q-82 0 -147 -16q-57 -15 -154 -49.5t-112 -51.5q-72 45 -173 119.5t-139 118.5q103 78 191 119q84 43 168 63q26 7 50.5 13.5t71.5 15
t92 13.5t103 5q39 0 59 -2q58 0 122.5 -11.5t156.5 -31.5q137 -26 248 -86q115 -62 176 -153q59 -97 59 -189q0 -31 -5.5 -58.5t-12 -52.5t-16.5 -61z" />
    <glyph glyph-name="A" unicode="A" horiz-adv-x="2077" 
d="M946 1194q-35 27 -63 27q-31 0 -64 -27q-35 -27 -67 -68q-29 -27 -116 -178.5t-87 -179.5h649q0 54 -37 123.5t-82 142.5q-18 33 -63.5 88.5t-69.5 71.5zM494 1528q-33 10 -33 57q0 24 16 49t33 42t41 38q13 13 81.5 57.5t102.5 61.5q23 16 79 33.5t89 17.5
q61 -5 162 -86l84 78l117 -98q0 -6 -42 -41t-42 -43q67 -70 123 -163.5t98 -187.5q22 -39 92 -193.5t141 -311.5t174 -386t111 -249q6 -16 43 -64t37 -76q0 -36 -47 -63h-713q-24 19 -24 37q0 11 18 41q7 15 29.5 59.5t29.5 61.5q13 34 13 100q0 119 -11 168q-4 12 -11 40.5
t-12.5 43t-15.5 27.5h-796q-14 -68 -28.5 -188.5t-14.5 -272.5q0 -132 18 -275q-63 0 -131 35q-65 33 -115 88q-51 53 -81 121q-33 66 -33 131q1 13 2.5 24.5t2.5 18.5t3 16t4 19q16 40 39 98t48 112.5t38 69.5l-111 5q0 6 6.5 53.5t6.5 85.5q0 33 -4 47q15 0 45 -0.5
t67 -1.5q64 0 74 6q17 24 63.5 90t100 142.5t114.5 165.5t66 98q31 63 31 114q0 87 -33 107q-15 8 -65.5 22.5t-79.5 18.5z" />
    <glyph glyph-name="B" unicode="B" horiz-adv-x="1915" 
d="M1313 1337q0 88 -21 140q-9 54 -55 87.5t-80 37.5q-79 12 -205 12q-108 0 -194.5 -11.5t-95.5 -31.5q-29 -22 -51 -82.5t-29 -104.5q-21 -136 -21 -229h588q22 0 61.5 16.5t71 58t31.5 107.5zM662 549q18 -9 52 -19t92.5 -19t135.5 -9q90 0 191 14q46 6 113 48t67 110
q4 36 4 53q0 70 -30 125t-71 84t-71 27h-584q-2 -17 -2 -72q0 -113 22.5 -210.5t80.5 -131.5zM1714 823q127 -89 127 -262q0 -107 -35 -174q-6 -21 -43 -71t-93 -106t-127 -101.5t-138 -57.5q-21 -14 -192 -30.5t-334 -16.5q-164 0 -273 16q-98 16 -199.5 62t-181 94
t-104.5 66q-39 23 -39 49q0 13 12 33q4 7 44.5 50.5t85 85.5t63.5 56v959q-23 5 -46.5 11.5t-56.5 18t-53 17.5q-57 21 -57 63q0 27 22 56.5t43 44.5q40 45 149.5 103.5t188.5 68.5q33 7 123 16.5t252 9.5q220 0 453 -26q21 -2 80.5 -23t125.5 -58.5t111 -86.5
q46 -53 59 -78q23 -43 23 -115q0 -10 -5.5 -40t-6.5 -46q-33 -103 -104 -176.5t-130 -109t-86 -46.5v-28q70 -35 173.5 -96.5t168.5 -131.5z" />
    <glyph glyph-name="C" unicode="C" horiz-adv-x="1892" 
d="M1503 123q-84 -56 -238 -89.5t-284 -33.5q-197 0 -363 70q-165 67 -286 194q-123 123 -191 291q-67 170 -67 371q0 139 25.5 263.5t72.5 207.5q96 180 260 289q49 33 108.5 60t127 49.5t141.5 41.5q154 39 319 39q344 0 621 -168q-35 -48 -189.5 -260t-183.5 -252
q-177 172 -422 172q-86 0 -158 -19t-104 -38q-46 -29 -80.5 -56t-58.5 -59q-48 -60 -80 -188q-24 -99 -24 -213q0 -543 526 -543q100 11 166 23.5t148.5 45.5t175.5 100t182 167q13 8 41 8q24 0 69 -7t58 -7q0 -52 -47.5 -144t-120 -180t-144.5 -135z" />
    <glyph glyph-name="D" unicode="D" horiz-adv-x="1810" 
d="M702 1624v-1161q334 0 494 162q160 159 160 487q0 167 -8 252q-9 96 -48 149q-38 56 -118 80q-104 29 -224 29q-3 0 -75 4t-113 4q-51 0 -68 -6zM119 1735q176 59 192 63q47 56 90 78q25 2 134 2q192 0 231 -2q211 0 389 -35q176 -35 305 -125t203 -243q72 -161 72 -408
q0 -252 -97 -451q-96 -198 -256 -333q-161 -138 -370 -209q-211 -72 -439 -72q-28 1 -105 3t-152.5 4t-90.5 3q0 27 4 43q13 28 76 97.5t117 123.5v1360h-348q0 22 11.5 53.5t33.5 47.5z" />
    <glyph glyph-name="E" unicode="E" horiz-adv-x="1898" 
d="M1679 1565q-126 -15 -204 -17q-60 0 -76 8q-8 4 -22.5 10t-26 11t-17.5 8q-15 7 -80.5 26t-83.5 19h-704v-489h704l-12 -129h-686l-2 -361q0 -45 33 -84.5t92 -44.5q76 -6 230.5 -15t289.5 -9q142 0 191 14q17 6 56.5 17t63 18t46.5 19.5t38 27.5q6 9 32.5 22t80.5 13
q79 0 180 -35q21 -15 21 -37q0 -12 -13 -33q-5 -8 -27.5 -46t-29.5 -48q-24 -48 -24 -80q0 -33 22 -55q8 -22 51 -82q17 -25 17 -61t-29 -58q-34 -34 -134 -54.5t-250 -30t-312 -9.5q-170 0 -337.5 7.5t-285 18.5t-139.5 21q-181 78 -230 160q-28 33 -28 84q0 20 8 35
q5 11 28 31t68 34v1493h1645q0 -33 -19 -72q-62 -115 -92 -161q-24 -45 -33 -86z" />
    <glyph glyph-name="F" unicode="F" horiz-adv-x="1843" 
d="M1655 1642q-11 -18 -25.5 -55.5t-19.5 -58.5q-14 7 -129.5 27.5t-212.5 31.5l-142 25l-694 8v-475h678l-16 -129h-662v-1016q-86 0 -121 14q-39 13 -73 35q-37 21 -62 47q-24 27 -24 56v868h-70l8 127h62v475l-78 262h1691q0 -39 -18 -80q-40 -74 -92 -162z" />
    <glyph glyph-name="G" unicode="G" horiz-adv-x="2058" 
d="M1839 1745q-65 -80 -144.5 -179t-116 -143t-85.5 -102q-27 61 -73 111.5t-110 90t-149.5 64.5t-179.5 29q-266 0 -398 -132.5t-132 -408.5q0 -119 25.5 -219t80.5 -172q19 -25 38.5 -41.5t46.5 -34t56 -37.5q32 -22 114.5 -41.5t168.5 -19.5q98 0 149 27q37 8 105 62.5
t68 115.5q0 17 -13 45q-76 26 -135.5 72.5t-85.5 72.5h913q0 -85 -12 -187.5t-31 -150.5q-45 -112 -118 -202q-76 -91 -174 -158q-101 -68 -211 -113q-113 -47 -230 -71q-116 -23 -225 -23q-197 0 -363 70q-165 71 -286 196t-189 299q-67 172 -67 377q0 201 67 375
q66 172 187 297q119 127 283.5 197.5t359.5 70.5q260 0 563 -74q78 -22 163 -41t140 -22z" />
    <glyph glyph-name="H" unicode="H" horiz-adv-x="1876" 
d="M1563 1780q30 -88 39 -138q14 -69 45.5 -256.5t77.5 -536t77 -720.5q0 -44 -24.5 -70t-59.5 -39.5t-71 -15.5h-103q-45 4 -86 16q-41 15 -69 39q-26 26 -29 70l-37 670h-768l-33 -674q-3 -44 -28 -68q-31 -26 -72 -39q-38 -14 -92 -18q-47 0 -97 4q-38 2 -73 15.5
t-60 39.5q-24 25 -24 70q7 163 34.5 391.5t64 486t65 435t32.5 200.5q0 2 14.5 78t24.5 95q15 28 66.5 50.5t136.5 22.5q54 0 102 -8q12 -5 30 -21.5t18 -48.5q0 -11 -5 -24v-45q3 -44 -4 -89.5t-24 -64.5q-1 -17 -17 -36.5t-18 -24.5l-33 -424h752l-33 424
q-22 8 -27.5 25.5t-11.5 35.5q-22 26 -22 129q1 21 1.5 38.5t0.5 43.5q0 43 16 62.5t41 19.5q87 -3 113 -8q69 -14 113 -31.5t57 -60.5z" />
    <glyph glyph-name="I" unicode="I" horiz-adv-x="768" 
d="M86 324v122q2 32 15.5 59t56.5 52v1051q-42 18 -56 41.5t-14 58.5q0 31 45 57q43 27 109 47q26 9 90.5 22t113.5 21.5t84 16.5q54 8 68 8q46 0 64 -15.5t18 -37.5q0 -24 -16 -51q-6 -10 -35.5 -17.5t-42.5 -14.5t-13 -26v-1667q0 -27 -17.5 -40t-35.5 -11q-73 2 -141 10
q-90 8 -154.5 41t-101.5 99q-37 64 -37 174z" />
    <glyph glyph-name="J" unicode="J" horiz-adv-x="1901" 
d="M244 121q-26 15 -80 52.5t-64 51.5q-24 31 -24 86q0 19 6 31l383 383q12 10 35 10q19 -6 30 -24q13 -27 29 -64q14 -39 37 -82q22 -45 61 -82q37 -39 95 -63q51 -27 137 -27q108 0 151 13q62 25 152.5 92.5t103.5 163.5v946q-21 9 -45 36t-24 64q0 31 45 57q43 27 108 47
q21 10 77 22t126 24t86 14q51 7 72.5 9t40.5 5q43 0 43 -41q-6 -29 -23 -53q-26 -39 -90 -55v-1075q0 -58 -44.5 -147.5t-80.5 -129.5q-6 -6 -43.5 -46t-83.5 -86t-84.5 -77.5t-66.5 -44.5q-26 -26 -123 -63t-146 -45q-154 -23 -301 -23q-95 0 -171.5 8.5t-102.5 14.5
q-42 9 -81.5 25t-67 31t-72.5 42z" />
    <glyph glyph-name="K" unicode="K" horiz-adv-x="2032" 
d="M1421 1712q-50 84 -59 109q-14 28 -14 77q108 0 196 -10q88 -12 150 -45q61 -37 96 -100q33 -68 33 -178q0 -86 -37 -168q-39 -82 -100 -146q-35 -35 -70.5 -63.5t-75.5 -46.5q-18 -9 -56.5 -31.5t-67.5 -35.5t-52 -17q-6 -51 -6 -111q0 -82 25.5 -172t70.5 -182
q43 -92 102 -182q58 -93 123 -172q64 -84 131 -150q72 -72 129 -115q4 -6 10.5 -20t6.5 -31q0 -23 -17 -35q-139 0 -258 47q-114 43 -206.5 119t-165.5 174q-76 99 -142 207q-65 107 -125 215q-78 136 -131 217q-26 -14 -142.5 -43.5t-205.5 -44.5v-741q-6 -14 -17.5 -39
t-37 -45.5t-70.5 -28.5q-27 -10 -119 -10q-56 8 -96.5 44t-44.5 60l2 736q-106 26 -106 110q0 41 25.5 72t47.5 39v629q0 2 -19.5 17t-34.5 34.5t-15 46.5q0 31 45 55q17 20 82.5 40.5t144 36.5t168 29t119.5 13q53 0 53 -29q0 -2 -4 -18q0 -46 -6 -88q-8 -47 -27 -86
q-18 -41 -57 -51v-562q46 0 83 7t78 18.5t87 24.5q108 28 207 86q96 59 188 149q90 90 188 215q25 36 25 76q0 42 -31 94z" />
    <glyph glyph-name="L" unicode="L" horiz-adv-x="1782" 
d="M375 1802q33 12 82.5 22.5t111 22.5t95.5 17q53 7 73 9t39 5q28 0 38.5 -8.5t10.5 -40.5q0 -45 -6 -90q-8 -47 -26.5 -88t-57.5 -52v-1216h559q-6 21 -6 39q0 9 2 22t6 27.5t4 17.5q7 41 31 64q25 20 62 29q34 6 71 6q72 0 119 -23q45 -24 74 -63q26 -41 39 -96
q5 -32 7.5 -92t2.5 -101q-2 -49 -14 -96q-4 -12 -15.5 -28.5t-23.5 -29t-23 -24.5q-12 -15 -57.5 -25t-79.5 -10h-1417q0 47 20 63q3 21 41.5 59.5t84 77t67.5 56.5v1343q-70 53 -70 99q0 33 45 59q43 25 111 45z" />
    <glyph glyph-name="M" unicode="M" horiz-adv-x="2025" 
d="M1278 1159q-110 -142 -222.5 -241t-166.5 -138q-98 136 -188.5 225t-148 129.5t-79.5 51.5v-1014q57 -29 70 -72q6 -23 10 -71q0 -15 -9.5 -21t-15.5 -8q-21 0 -54 2t-77 4q-82 6 -151 33q-70 24 -115 78q-47 53 -47 145q0 72 6 96q2 18 17.5 39t46.5 31v1323
q-37 18 -58 53q-20 33 -20 74q5 4 23 10t57 6q52 0 127 -16q38 -21 131 -85t231 -192t260 -298q1 1 81.5 63.5t152.5 132t129.5 159.5t60.5 181q0 13 -6 23l-6 10q4 7 9 7.5t44 0.5q27 0 63 -15t56 -38q45 -55 92 -144q1 -2 23.5 -41t38.5 -69.5t32 -69.5q45 -117 86 -239
q33 -102 135 -469q25 -103 39 -174q15 -72 15 -97q0 -102 -52 -217q-51 -117 -135 -215t-190 -162q-109 -65 -219 -65q0 59 12 104q5 11 30.5 34t37.5 40q28 181 28 352q0 150 -17.5 265t-37 185.5t-29.5 94.5q-15 51 -44.5 120.5t-55.5 98.5z" />
    <glyph glyph-name="N" unicode="N" horiz-adv-x="1776" 
d="M1690 0q-44 -49 -156 -49q-60 0 -135.5 15t-131.5 35t-71 32v690q0 14 -5.5 19.5t-33.5 27.5q-31 12 -102.5 39.5t-133.5 54t-157.5 71t-175.5 89.5q-31 21 -119.5 90t-108.5 98v-1212q48 -25 64 -68q0 -1 10 -26t10 -37q0 -31 -45 -31q-7 0 -41 4q-87 10 -137 25
q-57 18 -100 51q-45 30 -45 82v1890q3 11 10 11q5 0 8 -2t4 -3q64 -75 154 -165q70 -74 156 -150q86 -78 184 -151.5t199 -131.5q98 -59 194 -94q94 -37 178 -37v432q-6 5 -29 23t-34 41q-6 30 -6 37q0 31 45 57q43 27 110 47q261 56 289 60q66 8 113 14q26 0 35.5 -8
t13.5 -41q0 -43 -6 -90t-25 -88q-18 -41 -57 -52v-1470q37 -18 57 -53q21 -34 21 -76z" />
    <glyph glyph-name="O" unicode="O" horiz-adv-x="1837" 
d="M76 942q0 184 61 354q62 170 173.5 299t267.5 209q153 76 340 76q186 0 342 -76q155 -80 265.5 -209t172 -299t61.5 -354q0 -186 -61.5 -356t-171.5 -301q-111 -129 -266.5 -207t-341.5 -78q-187 0 -340 78q-156 78 -267 207q-112 131 -174 301q-61 170 -61 356z
M451 1073q0 -119 26 -219q27 -102 84 -174q55 -76 146 -115q88 -41 211 -41q124 0 212 41q89 39 146 115q55 72 82 174q26 100 26 219t-26.5 220.5t-81.5 176.5q-57 72 -146 113q-88 39 -212 39q-123 0 -211 -39q-91 -41 -146 -113q-57 -75 -84 -176q-26 -102 -26 -221z" />
    <glyph glyph-name="P" unicode="P" horiz-adv-x="1907" 
d="M758 1477q-35 -29 -35 -80v-426q115 -8 231 -8q86 0 143.5 3t78.5 5q54 0 84 33q53 59 53 198v43q0 152 -68 217q-67 66 -229 66q-57 0 -139 -10.5t-119 -40.5zM541 39q-37 12 -69 46t-32 48l4 653q-51 2 -85.5 28.5t-41.5 66.5q0 34 25 64.5t82 41.5l-12 279
q-11 30 -58.5 82t-113.5 117t-76 75q-90 30 -90 74q0 7 1.5 11.5t2.5 6.5q91 103 237.5 163.5t231.5 70.5q131 19 233 30t209 11q475 0 750 -265q22 -22 71 -118q21 -39 21 -158q0 -106 -37 -176q-35 -108 -123 -193t-191 -131.5t-177 -46.5q-266 -28 -525 -28h-69v-791
q-117 0 -168 39z" />
    <glyph glyph-name="Q" unicode="Q" horiz-adv-x="1915" 
d="M1071 883q42 -21 87.5 -45t100 -52t64.5 -30q4 11 18 49t17 49q26 100 26 219t-26.5 220.5t-81.5 176.5q-57 72 -146 113q-88 39 -212 39q-123 0 -211 -39q-91 -41 -146 -113q-57 -75 -84 -176q-26 -102 -26 -221t26 -219q27 -102 84 -174q55 -76 146 -115
q86 -41 229 -41q48 0 68.5 1.5t34 5t51.5 18.5q-88 48 -129 97.5t-50 72.5l19 194q24 -2 67.5 -9.5t73.5 -20.5zM1419 180q-73 -59 -159 -102q-156 -78 -342 -78q-187 0 -340 78q-156 78 -267 207q-112 131 -174 301q-61 170 -61 356q0 184 61 354q62 170 173.5 299
t267.5 209q153 76 340 76q186 0 342 -76q155 -80 265.5 -209t172 -299t61.5 -354q0 -186 -61 -356q-19 -49 -41 -97q47 -29 87.5 -90.5t74.5 -111.5q22 -41 22 -283q-104 0 -182 4q-48 3 -92.5 33t-81.5 69t-66 70z" />
    <glyph glyph-name="R" unicode="R" horiz-adv-x="2052" 
d="M1270 969q55 74 55 262q0 170 -68 242q-69 69 -233 69q-64 0 -121 -10t-88 -23t-47 -24q-35 -29 -35 -88l-4 -463h457q58 0 84 35zM424 942l-12 324q-11 30 -58.5 82t-113.5 117t-76 75q-90 30 -90 74q0 7 1.5 11.5t2.5 6.5q91 103 237.5 163.5t231.5 70.5q131 19 233 30
t209 11q475 0 750 -265q45 -45 80 -110q30 -66 30 -168q0 -80 -24 -135q-29 -58 -68 -103q-37 -47 -82 -86q-45 -41 -86 -86q-37 -47 -61 -102q-27 -57 -27 -135q0 -115 39 -225q35 -113 100 -213q66 -101 146 -187q88 -88 174 -158q4 -6 9 -19t5 -32q0 -23 -14 -41
q-159 0 -311 82q-152 78 -277 205q-119 127 -205 287q-82 157 -108 317h-344v-733h-271v733q-50 2 -84.5 30t-42.5 68q0 35 25 67.5t82 43.5z" />
    <glyph glyph-name="S" unicode="S" horiz-adv-x="1821" 
d="M74 276q8 21 35 58q48 63 170.5 185.5t185.5 166.5q16 -18 65.5 -49.5t99 -58t85.5 -37.5q74 -23 166 -23q79 0 146.5 14.5t96.5 26.5q47 21 78 64q31 41 31 116q0 88 -45 144q-45 53 -117 88q-74 33 -166 55q-94 18 -192 37q-99 16 -191 43q-94 22 -166 68
q-73 43 -118 112q-24 37 -34.5 85.5t-10.5 103.5q0 90 34 155q35 66 92 113q58 43 132 72q73 26 153 40q80 15 158 21q78 4 143 4q101 0 201 -8q98 -8 190 -35q93 -27 172 -82q80 -55 142 -149q-7 -34 -53.5 -86t-73.5 -52q-4 0 -9.5 2.5t-18 11.5t-19.5 13q-19 23 -76.5 57
t-75.5 35q-7 9 -22 15t-41 13t-39 11q-48 16 -123.5 24.5t-153.5 8.5q-91 0 -147 -12q-32 0 -96 -16.5t-93 -28.5q-48 -24 -71 -48q-39 -37 -39 -79q0 -79 98 -148q70 -51 166 -78q96 -30 209 -45q112 -14 227 -30q113 -19 219 -46q107 -26 189 -79q82 -56 131 -142
q49 -88 49 -225q0 -190 -76 -322q-76 -131 -196 -210q-123 -80 -275 -113q-153 -37 -309 -37q-127 0 -227 6q-101 4 -193 33q-92 24 -186 82q-97 53 -211 155z" />
    <glyph glyph-name="T" unicode="T" horiz-adv-x="1843" 
d="M1081 27q-53 -31 -221 -31q-86 0 -156.5 9t-85.5 22q-16 20 -16 45q0 55 96 82v1290q-235 65 -368 65q-190 0 -252 -123q0 15 -0.5 24t-1.5 20q0 94 17 175t34 126q13 36 55 73.5t68 46.5q64 50 295 50q82 0 158 -6.5t142.5 -19t108.5 -26.5q24 -9 54.5 -20t95.5 -28.5
t137 -28.5t152 -11q107 0 200 23q85 19 174 80q0 -124 -21 -242t-85 -192q-112 -89 -320 -89q-89 0 -194 17v-1075q19 -14 44.5 -35.5t25.5 -61.5q0 -11 -7 -32q0 -29 -48.5 -76.5t-80.5 -50.5z" />
    <glyph glyph-name="U" unicode="U" horiz-adv-x="1894" 
d="M113 1753q75 48 204 86.5t179 44.5q24 0 37.5 -8t13.5 -31q0 -11 -10 -43q-18 -43 -66 -63v-959q0 -49 47.5 -106t117.5 -100.5t124 -53.5q63 -14 194 -14q151 0 191 14q24 10 63.5 32t83 52.5t85.5 77.5t53 98v959q-46 21 -62 63q-6 22 -6 39q0 43 45 43
q35 -4 111 -26.5t155 -53.5t115 -51q31 -22 31 -43q0 -84 -68 -100v-447q7 -10 22 -41.5t30.5 -103t15.5 -178.5q0 -29 -4 -99q-16 -81 -70 -170t-110.5 -159t-94.5 -111q-36 -39 -94 -96.5t-131.5 -111.5t-138.5 -68q-70 -23 -195 -23q-89 0 -179 12.5t-124 24.5
q-39 8 -158 107.5t-143 142.5q-100 93 -194.5 235t-94.5 219q-2 25 -2 78q0 127 17 227t49 115v447q-2 2 -15 12t-27 24t-22 29q-12 13 -12 29q0 24 37 49z" />
    <glyph glyph-name="V" unicode="V" horiz-adv-x="1888" 
d="M1403 1901q77 0 146 -11t102 -28q85 -40 116 -76q45 -51 45 -144q0 -20 -32 -104q-2 -6 -55 -130t-122 -283t-114.5 -264t-56.5 -128q-18 -39 -54.5 -113t-123 -249t-126 -255.5t-69.5 -142.5q-24 -42 -33.5 -55.5t-21.5 -13.5q-13 0 -20.5 6.5t-16.5 21.5t-27 41
q-13 26 -67.5 121t-136.5 239.5t-135 238.5t-95 169q-31 60 -69 137.5t-119.5 252t-133.5 287.5t-73 159q-37 92 -37 125t43 57q24 20 86.5 42t135.5 38.5t155 27.5t127 11q25 0 36.5 -6t10.5 -27q-3 -29 -13 -51q-14 -39 -63 -63q-62 -29 -62 -121q0 -61 26 -143
t62.5 -163.5t38.5 -86.5q11 -33 85.5 -209t151 -321.5t114.5 -156.5q39 0 92.5 91.5t101.5 205t100 250.5t54 140q16 27 43 92t49 146t22 144q0 94 -49 132q-55 26 -65 71q-6 19 -10 56q0 26 14.5 34.5t42.5 8.5z" />
    <glyph glyph-name="W" unicode="W" horiz-adv-x="2011" 
d="M96 1505q-20 11 -20 47q9 36 14.5 52.5t20.5 35.5q34 41 90 76q53 33 121 62q67 26 135 47q72 20 123 28q5 2 15 4.5t21 2.5q48 0 48 -43q0 -20 -9 -41q-14 -37 -63 -64q-5 -50 -13 -163t-8 -240q0 -165 21 -279q9 -82 60.5 -164.5t80.5 -95.5q12 -4 21 -4q41 0 80 31
q34 26 59 69t41 96.5t27 104.5q9 50 12 92q3 74 26 74q6 0 20 -5t21 -7q83 -42 182 -137t171 -191q7 -10 18 -10q12 0 26.5 13.5t22.5 29.5q49 46 63 96t27 135q21 183 21 318q0 107 -8 162t-13 73q-56 29 -65 74q-3 8 -7.5 24.5t-4.5 34.5q0 41 36 41q18 0 86 -4
q52 -6 111 -14q59 -11 111 -29q51 -20 86 -51q32 -31 32 -76q0 -79 -14 -205.5t-35.5 -250t-40.5 -183.5q-2 -11 -29.5 -123t-61.5 -242t-53 -199.5t-30 -107.5q-35 -114 -76 -202q-43 -88 -92 -142q-53 -53 -112 -53q-26 0 -31 18q4 27 4 97q-4 67 -18 147q-15 78 -39 160
q-27 80 -68 145q-43 66 -100 107q-13 9 -37 26t-43 25t-41 8q-17 0 -55 -71q-8 -17 -50 -102.5t-102 -212t-90 -189.5t-49 -107q-31 -53 -45 -53q-66 0 -109 41q-45 39 -76 104q-13 25 -49 148t-47 166q-28 113 -55.5 223.5t-54.5 243.5t-43.5 271.5t-16.5 262.5
q-7 2 -41.5 22t-38.5 23z" />
    <glyph glyph-name="X" unicode="X" horiz-adv-x="2032" 
d="M887 674q-57 -110 -170 -307q-51 -95 -107 -174q-57 -82 -118 -136q-27 -23 -81 -40t-89 -17q-26 45 -58 70.5t-79.5 58t-47.5 45.5q0 23 6 31q88 59 191 125q102 63 190 143q86 78 144 176q11 19 47.5 69t57 89t20.5 78q0 40 -20.5 73.5t-55 74.5t-49.5 67
q-58 98 -144 178q-88 80 -190 145q-42 27 -139.5 99t-120.5 86q0 18 13.5 32.5t39.5 36t34.5 35.5t21 25t32 24t41.5 29q53 41 116.5 64.5t123.5 23.5q96 0 167.5 -53t127.5 -133q53 -82 94 -176q39 -95 70.5 -175.5t60.5 -134.5q26 -53 55 -53q23 0 57 53q33 54 76 133
q41 80 92 174q52 95 109 175q55 79 116.5 132.5t125.5 53.5q36 0 77 -8q39 -11 74 -31q24 -18 61.5 -46.5t96.5 -53.5q-1 -5 -42 -32.5t-44 -27.5q-90 -59 -191 -125q-102 -65 -188 -143q-88 -80 -145 -178q-17 -29 -61 -80.5t-69.5 -91.5t-25.5 -78q0 -36 51.5 -109
t137.5 -179t100 -130q43 -39 87 -79t93 -72q28 -27 80 -27q50 0 110 29q2 -1 43 4q35 0 35 -8q-79 -70 -129 -136.5t-81 -123.5t-47 -87.5t-30 -35.5q-63 -25 -122 -25q-97 0 -168.5 54.5t-124.5 133.5q-56 80 -97 177q-41 94 -71 174q-33 79 -60 135q-26 53 -55 53
q-22 0 -55 -53z" />
    <glyph glyph-name="Y" unicode="Y" horiz-adv-x="1878" 
d="M1223 858v-594q69 -19 69 -82q0 -32 -43 -59q-44 -14 -180 -41q-15 -3 -37.5 -12.5t-44 -21.5t-50 -28t-34.5 -18q-35 -14 -80 -14q-52 0 -75 20q-41 28 -41 58q0 16 4 24q14 39 63 64v612q-26 20 -52.5 45.5t-56.5 60.5t-51 58q-99 103 -180 209q-72 88 -233 331
q-4 5 -25 10.5t-45 22.5t-53 62q-4 2 -4 10q0 7 5.5 20t10.5 17q28 31 206.5 121.5t305.5 152.5q39 0 45 -6q4 -3 33.5 -32t60.5 -61t33 -34q4 -8 4 -31q0 -30 -10 -49q-12 -20 -25 -39q-14 -18 -24 -41q-12 -24 -12 -63q0 -66 28 -150q27 -86 76 -161.5t115 -126.5
q65 -54 141 -54q84 0 150 37q65 35 112 92q45 58 70 131q24 74 24 150q0 65 -12 100t-27 60q-14 24 -26 49q-12 22 -12 65q0 45 22 78q21 31 55 51q33 21 74 29t78 8q104 0 168 -59q61 -62 61 -168q0 -74 -30.5 -152.5t-79.5 -156.5q-52 -78 -115 -152q-17 -24 -90 -101
t-147 -146t-119 -95z" />
    <glyph glyph-name="Z" unicode="Z" horiz-adv-x="1925" 
d="M1737 1872q9 6 28 6q28 -2 48 -15t20 -40q20 -48 20 -142q0 -109 -34 -139q-110 -98 -336.5 -309t-445.5 -437.5t-220 -291.5q0 -56 59.5 -88.5t110.5 -32.5q34 -6 119 -14.5t168 -8.5q168 0 268 39q37 15 67.5 34.5t50.5 36t32.5 25.5t25.5 9q41 0 41 -53q2 -17 2 -52
q0 -72 -12 -147t-41 -133q-21 -44 -145 -86q-136 -33 -357 -33q-94 0 -176 4t-257.5 17.5t-254 18.5t-135.5 5q-104 0 -133 -20q-59 -45 -98 -45q-31 0 -47.5 20.5t-18.5 36.5q-12 58 -12 115q0 50 7 99t11 68q32 99 192.5 273.5t353 351.5t340 303.5t210.5 177.5
q0 8 -69 20t-162 21.5t-212 16t-208 6.5q-128 0 -189 -10q-65 -24 -147 -97q-27 -14 -39 -14q-11 0 -15 8t-4.5 17.5t-1.5 15.5q9 81 26.5 151t36.5 126t19 59q12 29 47.5 65.5t77.5 51.5q17 7 80 4q149 0 739 -39q81 -6 146 -6q123 0 207 12t217 39z" />
    <glyph glyph-name="backslash" unicode="\" horiz-adv-x="1802" 
d="M1483 131q-10 -12 -49.5 -43.5t-88 -57.5t-88.5 -30q-16 -4 -36 -4q-81 0 -105 47l-520 825l-242 353q-3 3 -23 6t-32.5 6.5t-19.5 13.5q-29 9 -67 63t-58 95q-23 22 -23 55q0 16 5.5 30t8.5 19q148 115 261 115q33 0 53 -12q21 -12 58.5 -56t62.5 -73q4 -5 116.5 -144
t278.5 -351.5t304.5 -400.5t221.5 -321q15 -19 15 -51q0 -46 -33 -84z" />
    <glyph glyph-name="underscore" unicode="_" horiz-adv-x="1802" 
d="M1640 78q-50 -39 -89 -58.5t-91 -19.5q-162 4 -293 21.5t-292 44.5t-199 28q-129 37 -240 37q-80 0 -141 -17t-116.5 -43t-121.5 -57q0 17 -0.5 27t-1.5 22q0 107 21.5 186.5t51.5 127.5t58.5 73t42.5 29q45 35 232 35q94 0 191.5 -7t176 -15.5t105.5 -14.5
q265 -59 493 -59q230 0 320 74q0 -89 -33 -227.5t-74 -186.5z" />
    <glyph glyph-name="a" unicode="a" horiz-adv-x="2077" 
d="M946 1194q-35 27 -63 27q-31 0 -64 -27q-35 -27 -67 -68q-29 -27 -116 -178.5t-87 -179.5h649q0 54 -37 123.5t-82 142.5q-18 33 -63.5 88.5t-69.5 71.5zM494 1528q-33 10 -33 57q0 24 16 49t33 42t41 38q13 13 81.5 57.5t102.5 61.5q23 16 79 33.5t89 17.5
q61 -5 162 -86l84 78l117 -98q0 -6 -42 -41t-42 -43q67 -70 123 -163.5t98 -187.5q22 -39 92 -193.5t141 -311.5t174 -386t111 -249q6 -16 43 -64t37 -76q0 -36 -47 -63h-713q-24 19 -24 37q0 11 18 41q7 15 29.5 59.5t29.5 61.5q13 34 13 100q0 119 -11 168q-4 12 -11 40.5
t-12.5 43t-15.5 27.5h-796q-14 -68 -28.5 -188.5t-14.5 -272.5q0 -132 18 -275q-63 0 -131 35q-65 33 -115 88q-51 53 -81 121q-33 66 -33 131q1 13 2.5 24.5t2.5 18.5t3 16t4 19q16 40 39 98t48 112.5t38 69.5l-111 5q0 6 6.5 53.5t6.5 85.5q0 33 -4 47q15 0 45 -0.5
t67 -1.5q64 0 74 6q17 24 63.5 90t100 142.5t114.5 165.5t66 98q31 63 31 114q0 87 -33 107q-15 8 -65.5 22.5t-79.5 18.5z" />
    <glyph glyph-name="b" unicode="b" horiz-adv-x="1915" 
d="M1313 1337q0 88 -21 140q-9 54 -55 87.5t-80 37.5q-79 12 -205 12q-108 0 -194.5 -11.5t-95.5 -31.5q-29 -22 -51 -82.5t-29 -104.5q-21 -136 -21 -229h588q22 0 61.5 16.5t71 58t31.5 107.5zM662 549q18 -9 52 -19t92.5 -19t135.5 -9q90 0 191 14q46 6 113 48t67 110
q4 36 4 53q0 70 -30 125t-71 84t-71 27h-584q-2 -17 -2 -72q0 -113 22.5 -210.5t80.5 -131.5zM1714 823q127 -89 127 -262q0 -107 -35 -174q-6 -21 -43 -71t-93 -106t-127 -101.5t-138 -57.5q-21 -14 -192 -30.5t-334 -16.5q-164 0 -273 16q-98 16 -199.5 62t-181 94
t-104.5 66q-39 23 -39 49q0 13 12 33q4 7 44.5 50.5t85 85.5t63.5 56v959q-23 5 -46.5 11.5t-56.5 18t-53 17.5q-57 21 -57 63q0 27 22 56.5t43 44.5q40 45 149.5 103.5t188.5 68.5q33 7 123 16.5t252 9.5q220 0 453 -26q21 -2 80.5 -23t125.5 -58.5t111 -86.5
q46 -53 59 -78q23 -43 23 -115q0 -10 -5.5 -40t-6.5 -46q-33 -103 -104 -176.5t-130 -109t-86 -46.5v-28q70 -35 173.5 -96.5t168.5 -131.5z" />
    <glyph glyph-name="c" unicode="c" horiz-adv-x="1892" 
d="M1503 123q-84 -56 -238 -89.5t-284 -33.5q-197 0 -363 70q-165 67 -286 194q-123 123 -191 291q-67 170 -67 371q0 139 25.5 263.5t72.5 207.5q96 180 260 289q49 33 108.5 60t127 49.5t141.5 41.5q154 39 319 39q344 0 621 -168q-35 -48 -189.5 -260t-183.5 -252
q-177 172 -422 172q-86 0 -158 -19t-104 -38q-46 -29 -80.5 -56t-58.5 -59q-48 -60 -80 -188q-24 -99 -24 -213q0 -543 526 -543q100 11 166 23.5t148.5 45.5t175.5 100t182 167q13 8 41 8q24 0 69 -7t58 -7q0 -52 -47.5 -144t-120 -180t-144.5 -135z" />
    <glyph glyph-name="d" unicode="d" horiz-adv-x="1810" 
d="M702 1624v-1161q334 0 494 162q160 159 160 487q0 167 -8 252q-9 96 -48 149q-38 56 -118 80q-104 29 -224 29q-3 0 -75 4t-113 4q-51 0 -68 -6zM119 1735q176 59 192 63q47 56 90 78q25 2 134 2q192 0 231 -2q211 0 389 -35q176 -35 305 -125t203 -243q72 -161 72 -408
q0 -252 -97 -451q-96 -198 -256 -333q-161 -138 -370 -209q-211 -72 -439 -72q-28 1 -105 3t-152.5 4t-90.5 3q0 27 4 43q13 28 76 97.5t117 123.5v1360h-348q0 22 11.5 53.5t33.5 47.5z" />
    <glyph glyph-name="e" unicode="e" horiz-adv-x="1898" 
d="M1679 1565q-126 -15 -204 -17q-60 0 -76 8q-8 4 -22.5 10t-26 11t-17.5 8q-15 7 -80.5 26t-83.5 19h-704v-489h704l-12 -129h-686l-2 -361q0 -45 33 -84.5t92 -44.5q76 -6 230.5 -15t289.5 -9q142 0 191 14q17 6 56.5 17t63 18t46.5 19.5t38 27.5q6 9 32.5 22t80.5 13
q79 0 180 -35q21 -15 21 -37q0 -12 -13 -33q-5 -8 -27.5 -46t-29.5 -48q-24 -48 -24 -80q0 -33 22 -55q8 -22 51 -82q17 -25 17 -61t-29 -58q-34 -34 -134 -54.5t-250 -30t-312 -9.5q-170 0 -337.5 7.5t-285 18.5t-139.5 21q-181 78 -230 160q-28 33 -28 84q0 20 8 35
q5 11 28 31t68 34v1493h1645q0 -33 -19 -72q-62 -115 -92 -161q-24 -45 -33 -86z" />
    <glyph glyph-name="f" unicode="f" horiz-adv-x="1843" 
d="M1655 1642q-11 -18 -25.5 -55.5t-19.5 -58.5q-14 7 -129.5 27.5t-212.5 31.5l-142 25l-694 8v-475h678l-16 -129h-662v-1016q-86 0 -121 14q-39 13 -73 35q-37 21 -62 47q-24 27 -24 56v868h-70l8 127h62v475l-78 262h1691q0 -39 -18 -80q-40 -74 -92 -162z" />
    <glyph glyph-name="g" unicode="g" horiz-adv-x="2058" 
d="M1839 1745q-65 -80 -144.5 -179t-116 -143t-85.5 -102q-27 61 -73 111.5t-110 90t-149.5 64.5t-179.5 29q-266 0 -398 -132.5t-132 -408.5q0 -119 25.5 -219t80.5 -172q19 -25 38.5 -41.5t46.5 -34t56 -37.5q32 -22 114.5 -41.5t168.5 -19.5q98 0 149 27q37 8 105 62.5
t68 115.5q0 17 -13 45q-76 26 -135.5 72.5t-85.5 72.5h913q0 -85 -12 -187.5t-31 -150.5q-45 -112 -118 -202q-76 -91 -174 -158q-101 -68 -211 -113q-113 -47 -230 -71q-116 -23 -225 -23q-197 0 -363 70q-165 71 -286 196t-189 299q-67 172 -67 377q0 201 67 375
q66 172 187 297q119 127 283.5 197.5t359.5 70.5q260 0 563 -74q78 -22 163 -41t140 -22z" />
    <glyph glyph-name="h" unicode="h" horiz-adv-x="1876" 
d="M1563 1780q30 -88 39 -138q14 -69 45.5 -256.5t77.5 -536t77 -720.5q0 -44 -24.5 -70t-59.5 -39.5t-71 -15.5h-103q-45 4 -86 16q-41 15 -69 39q-26 26 -29 70l-37 670h-768l-33 -674q-3 -44 -28 -68q-31 -26 -72 -39q-38 -14 -92 -18q-47 0 -97 4q-38 2 -73 15.5
t-60 39.5q-24 25 -24 70q7 163 34.5 391.5t64 486t65 435t32.5 200.5q0 2 14.5 78t24.5 95q15 28 66.5 50.5t136.5 22.5q54 0 102 -8q12 -5 30 -21.5t18 -48.5q0 -11 -5 -24v-45q3 -44 -4 -89.5t-24 -64.5q-1 -17 -17 -36.5t-18 -24.5l-33 -424h752l-33 424
q-22 8 -27.5 25.5t-11.5 35.5q-22 26 -22 129q1 21 1.5 38.5t0.5 43.5q0 43 16 62.5t41 19.5q87 -3 113 -8q69 -14 113 -31.5t57 -60.5z" />
    <glyph glyph-name="i" unicode="i" horiz-adv-x="768" 
d="M86 324v122q2 32 15.5 59t56.5 52v1051q-42 18 -56 41.5t-14 58.5q0 31 45 57q43 27 109 47q26 9 90.5 22t113.5 21.5t84 16.5q54 8 68 8q46 0 64 -15.5t18 -37.5q0 -24 -16 -51q-6 -10 -35.5 -17.5t-42.5 -14.5t-13 -26v-1667q0 -27 -17.5 -40t-35.5 -11q-73 2 -141 10
q-90 8 -154.5 41t-101.5 99q-37 64 -37 174z" />
    <glyph glyph-name="j" unicode="j" horiz-adv-x="1901" 
d="M244 121q-26 15 -80 52.5t-64 51.5q-24 31 -24 86q0 19 6 31l383 383q12 10 35 10q19 -6 30 -24q13 -27 29 -64q14 -39 37 -82q22 -45 61 -82q37 -39 95 -63q51 -27 137 -27q108 0 151 13q62 25 152.5 92.5t103.5 163.5v946q-21 9 -45 36t-24 64q0 31 45 57q43 27 108 47
q21 10 77 22t126 24t86 14q51 7 72.5 9t40.5 5q43 0 43 -41q-6 -29 -23 -53q-26 -39 -90 -55v-1075q0 -58 -44.5 -147.5t-80.5 -129.5q-6 -6 -43.5 -46t-83.5 -86t-84.5 -77.5t-66.5 -44.5q-26 -26 -123 -63t-146 -45q-154 -23 -301 -23q-95 0 -171.5 8.5t-102.5 14.5
q-42 9 -81.5 25t-67 31t-72.5 42z" />
    <glyph glyph-name="k" unicode="k" horiz-adv-x="2032" 
d="M1421 1712q-50 84 -59 109q-14 28 -14 77q108 0 196 -10q88 -12 150 -45q61 -37 96 -100q33 -68 33 -178q0 -86 -37 -168q-39 -82 -100 -146q-35 -35 -70.5 -63.5t-75.5 -46.5q-18 -9 -56.5 -31.5t-67.5 -35.5t-52 -17q-6 -51 -6 -111q0 -82 25.5 -172t70.5 -182
q43 -92 102 -182q58 -93 123 -172q64 -84 131 -150q72 -72 129 -115q4 -6 10.5 -20t6.5 -31q0 -23 -17 -35q-139 0 -258 47q-114 43 -206.5 119t-165.5 174q-76 99 -142 207q-65 107 -125 215q-78 136 -131 217q-26 -14 -142.5 -43.5t-205.5 -44.5v-741q-6 -14 -17.5 -39
t-37 -45.5t-70.5 -28.5q-27 -10 -119 -10q-56 8 -96.5 44t-44.5 60l2 736q-106 26 -106 110q0 41 25.5 72t47.5 39v629q0 2 -19.5 17t-34.5 34.5t-15 46.5q0 31 45 55q17 20 82.5 40.5t144 36.5t168 29t119.5 13q53 0 53 -29q0 -2 -4 -18q0 -46 -6 -88q-8 -47 -27 -86
q-18 -41 -57 -51v-562q46 0 83 7t78 18.5t87 24.5q108 28 207 86q96 59 188 149q90 90 188 215q25 36 25 76q0 42 -31 94z" />
    <glyph glyph-name="l" unicode="l" horiz-adv-x="1782" 
d="M375 1802q33 12 82.5 22.5t111 22.5t95.5 17q53 7 73 9t39 5q28 0 38.5 -8.5t10.5 -40.5q0 -45 -6 -90q-8 -47 -26.5 -88t-57.5 -52v-1216h559q-6 21 -6 39q0 9 2 22t6 27.5t4 17.5q7 41 31 64q25 20 62 29q34 6 71 6q72 0 119 -23q45 -24 74 -63q26 -41 39 -96
q5 -32 7.5 -92t2.5 -101q-2 -49 -14 -96q-4 -12 -15.5 -28.5t-23.5 -29t-23 -24.5q-12 -15 -57.5 -25t-79.5 -10h-1417q0 47 20 63q3 21 41.5 59.5t84 77t67.5 56.5v1343q-70 53 -70 99q0 33 45 59q43 25 111 45z" />
    <glyph glyph-name="m" unicode="m" horiz-adv-x="2025" 
d="M1278 1159q-110 -142 -222.5 -241t-166.5 -138q-98 136 -188.5 225t-148 129.5t-79.5 51.5v-1014q57 -29 70 -72q6 -23 10 -71q0 -15 -9.5 -21t-15.5 -8q-21 0 -54 2t-77 4q-82 6 -151 33q-70 24 -115 78q-47 53 -47 145q0 72 6 96q2 18 17.5 39t46.5 31v1323
q-37 18 -58 53q-20 33 -20 74q5 4 23 10t57 6q52 0 127 -16q38 -21 131 -85t231 -192t260 -298q1 1 81.5 63.5t152.5 132t129.5 159.5t60.5 181q0 13 -6 23l-6 10q4 7 9 7.5t44 0.5q27 0 63 -15t56 -38q45 -55 92 -144q1 -2 23.5 -41t38.5 -69.5t32 -69.5q45 -117 86 -239
q33 -102 135 -469q25 -103 39 -174q15 -72 15 -97q0 -102 -52 -217q-51 -117 -135 -215t-190 -162q-109 -65 -219 -65q0 59 12 104q5 11 30.5 34t37.5 40q28 181 28 352q0 150 -17.5 265t-37 185.5t-29.5 94.5q-15 51 -44.5 120.5t-55.5 98.5z" />
    <glyph glyph-name="n" unicode="n" horiz-adv-x="1776" 
d="M1690 0q-44 -49 -156 -49q-60 0 -135.5 15t-131.5 35t-71 32v690q0 14 -5.5 19.5t-33.5 27.5q-31 12 -102.5 39.5t-133.5 54t-157.5 71t-175.5 89.5q-31 21 -119.5 90t-108.5 98v-1212q48 -25 64 -68q0 -1 10 -26t10 -37q0 -31 -45 -31q-7 0 -41 4q-87 10 -137 25
q-57 18 -100 51q-45 30 -45 82v1890q3 11 10 11q5 0 8 -2t4 -3q64 -75 154 -165q70 -74 156 -150q86 -78 184 -151.5t199 -131.5q98 -59 194 -94q94 -37 178 -37v432q-6 5 -29 23t-34 41q-6 30 -6 37q0 31 45 57q43 27 110 47q261 56 289 60q66 8 113 14q26 0 35.5 -8
t13.5 -41q0 -43 -6 -90t-25 -88q-18 -41 -57 -52v-1470q37 -18 57 -53q21 -34 21 -76z" />
    <glyph glyph-name="o" unicode="o" horiz-adv-x="1837" 
d="M76 942q0 184 61 354q62 170 173.5 299t267.5 209q153 76 340 76q186 0 342 -76q155 -80 265.5 -209t172 -299t61.5 -354q0 -186 -61.5 -356t-171.5 -301q-111 -129 -266.5 -207t-341.5 -78q-187 0 -340 78q-156 78 -267 207q-112 131 -174 301q-61 170 -61 356z
M451 1073q0 -119 26 -219q27 -102 84 -174q55 -76 146 -115q88 -41 211 -41q124 0 212 41q89 39 146 115q55 72 82 174q26 100 26 219t-26.5 220.5t-81.5 176.5q-57 72 -146 113q-88 39 -212 39q-123 0 -211 -39q-91 -41 -146 -113q-57 -75 -84 -176q-26 -102 -26 -221z" />
    <glyph glyph-name="p" unicode="p" horiz-adv-x="1907" 
d="M758 1477q-35 -29 -35 -80v-426q115 -8 231 -8q86 0 143.5 3t78.5 5q54 0 84 33q53 59 53 198v43q0 152 -68 217q-67 66 -229 66q-57 0 -139 -10.5t-119 -40.5zM541 39q-37 12 -69 46t-32 48l4 653q-51 2 -85.5 28.5t-41.5 66.5q0 34 25 64.5t82 41.5l-12 279
q-11 30 -58.5 82t-113.5 117t-76 75q-90 30 -90 74q0 7 1.5 11.5t2.5 6.5q91 103 237.5 163.5t231.5 70.5q131 19 233 30t209 11q475 0 750 -265q22 -22 71 -118q21 -39 21 -158q0 -106 -37 -176q-35 -108 -123 -193t-191 -131.5t-177 -46.5q-266 -28 -525 -28h-69v-791
q-117 0 -168 39z" />
    <glyph glyph-name="q" unicode="q" horiz-adv-x="1915" 
d="M1071 883q42 -21 87.5 -45t100 -52t64.5 -30q4 11 18 49t17 49q26 100 26 219t-26.5 220.5t-81.5 176.5q-57 72 -146 113q-88 39 -212 39q-123 0 -211 -39q-91 -41 -146 -113q-57 -75 -84 -176q-26 -102 -26 -221t26 -219q27 -102 84 -174q55 -76 146 -115
q86 -41 229 -41q48 0 68.5 1.5t34 5t51.5 18.5q-88 48 -129 97.5t-50 72.5l19 194q24 -2 67.5 -9.5t73.5 -20.5zM1419 180q-73 -59 -159 -102q-156 -78 -342 -78q-187 0 -340 78q-156 78 -267 207q-112 131 -174 301q-61 170 -61 356q0 184 61 354q62 170 173.5 299
t267.5 209q153 76 340 76q186 0 342 -76q155 -80 265.5 -209t172 -299t61.5 -354q0 -186 -61 -356q-19 -49 -41 -97q47 -29 87.5 -90.5t74.5 -111.5q22 -41 22 -283q-104 0 -182 4q-48 3 -92.5 33t-81.5 69t-66 70z" />
    <glyph glyph-name="r" unicode="r" horiz-adv-x="2052" 
d="M1270 969q55 74 55 262q0 170 -68 242q-69 69 -233 69q-64 0 -121 -10t-88 -23t-47 -24q-35 -29 -35 -88l-4 -463h457q58 0 84 35zM424 942l-12 324q-11 30 -58.5 82t-113.5 117t-76 75q-90 30 -90 74q0 7 1.5 11.5t2.5 6.5q91 103 237.5 163.5t231.5 70.5q131 19 233 30
t209 11q475 0 750 -265q45 -45 80 -110q30 -66 30 -168q0 -80 -24 -135q-29 -58 -68 -103q-37 -47 -82 -86q-45 -41 -86 -86q-37 -47 -61 -102q-27 -57 -27 -135q0 -115 39 -225q35 -113 100 -213q66 -101 146 -187q88 -88 174 -158q4 -6 9 -19t5 -32q0 -23 -14 -41
q-159 0 -311 82q-152 78 -277 205q-119 127 -205 287q-82 157 -108 317h-344v-733h-271v733q-50 2 -84.5 30t-42.5 68q0 35 25 67.5t82 43.5z" />
    <glyph glyph-name="s" unicode="s" horiz-adv-x="1821" 
d="M74 276q8 21 35 58q48 63 170.5 185.5t185.5 166.5q16 -18 65.5 -49.5t99 -58t85.5 -37.5q74 -23 166 -23q79 0 146.5 14.5t96.5 26.5q47 21 78 64q31 41 31 116q0 88 -45 144q-45 53 -117 88q-74 33 -166 55q-94 18 -192 37q-99 16 -191 43q-94 22 -166 68
q-73 43 -118 112q-24 37 -34.5 85.5t-10.5 103.5q0 90 34 155q35 66 92 113q58 43 132 72q73 26 153 40q80 15 158 21q78 4 143 4q101 0 201 -8q98 -8 190 -35q93 -27 172 -82q80 -55 142 -149q-7 -34 -53.5 -86t-73.5 -52q-4 0 -9.5 2.5t-18 11.5t-19.5 13q-19 23 -76.5 57
t-75.5 35q-7 9 -22 15t-41 13t-39 11q-48 16 -123.5 24.5t-153.5 8.5q-91 0 -147 -12q-32 0 -96 -16.5t-93 -28.5q-48 -24 -71 -48q-39 -37 -39 -79q0 -79 98 -148q70 -51 166 -78q96 -30 209 -45q112 -14 227 -30q113 -19 219 -46q107 -26 189 -79q82 -56 131 -142
q49 -88 49 -225q0 -190 -76 -322q-76 -131 -196 -210q-123 -80 -275 -113q-153 -37 -309 -37q-127 0 -227 6q-101 4 -193 33q-92 24 -186 82q-97 53 -211 155z" />
    <glyph glyph-name="t" unicode="t" horiz-adv-x="1843" 
d="M1081 27q-53 -31 -221 -31q-86 0 -156.5 9t-85.5 22q-16 20 -16 45q0 55 96 82v1290q-235 65 -368 65q-190 0 -252 -123q0 15 -0.5 24t-1.5 20q0 94 17 175t34 126q13 36 55 73.5t68 46.5q64 50 295 50q82 0 158 -6.5t142.5 -19t108.5 -26.5q24 -9 54.5 -20t95.5 -28.5
t137 -28.5t152 -11q107 0 200 23q85 19 174 80q0 -124 -21 -242t-85 -192q-112 -89 -320 -89q-89 0 -194 17v-1075q19 -14 44.5 -35.5t25.5 -61.5q0 -11 -7 -32q0 -29 -48.5 -76.5t-80.5 -50.5z" />
    <glyph glyph-name="u" unicode="u" horiz-adv-x="1894" 
d="M113 1753q75 48 204 86.5t179 44.5q24 0 37.5 -8t13.5 -31q0 -11 -10 -43q-18 -43 -66 -63v-959q0 -49 47.5 -106t117.5 -100.5t124 -53.5q63 -14 194 -14q151 0 191 14q24 10 63.5 32t83 52.5t85.5 77.5t53 98v959q-46 21 -62 63q-6 22 -6 39q0 43 45 43
q35 -4 111 -26.5t155 -53.5t115 -51q31 -22 31 -43q0 -84 -68 -100v-447q7 -10 22 -41.5t30.5 -103t15.5 -178.5q0 -29 -4 -99q-16 -81 -70 -170t-110.5 -159t-94.5 -111q-36 -39 -94 -96.5t-131.5 -111.5t-138.5 -68q-70 -23 -195 -23q-89 0 -179 12.5t-124 24.5
q-39 8 -158 107.5t-143 142.5q-100 93 -194.5 235t-94.5 219q-2 25 -2 78q0 127 17 227t49 115v447q-2 2 -15 12t-27 24t-22 29q-12 13 -12 29q0 24 37 49z" />
    <glyph glyph-name="v" unicode="v" horiz-adv-x="1888" 
d="M1403 1901q77 0 146 -11t102 -28q85 -40 116 -76q45 -51 45 -144q0 -20 -32 -104q-2 -6 -55 -130t-122 -283t-114.5 -264t-56.5 -128q-18 -39 -54.5 -113t-123 -249t-126 -255.5t-69.5 -142.5q-24 -42 -33.5 -55.5t-21.5 -13.5q-13 0 -20.5 6.5t-16.5 21.5t-27 41
q-13 26 -67.5 121t-136.5 239.5t-135 238.5t-95 169q-31 60 -69 137.5t-119.5 252t-133.5 287.5t-73 159q-37 92 -37 125t43 57q24 20 86.5 42t135.5 38.5t155 27.5t127 11q25 0 36.5 -6t10.5 -27q-3 -29 -13 -51q-14 -39 -63 -63q-62 -29 -62 -121q0 -61 26 -143
t62.5 -163.5t38.5 -86.5q11 -33 85.5 -209t151 -321.5t114.5 -156.5q39 0 92.5 91.5t101.5 205t100 250.5t54 140q16 27 43 92t49 146t22 144q0 94 -49 132q-55 26 -65 71q-6 19 -10 56q0 26 14.5 34.5t42.5 8.5z" />
    <glyph glyph-name="w" unicode="w" horiz-adv-x="2011" 
d="M96 1505q-20 11 -20 47q9 36 14.5 52.5t20.5 35.5q34 41 90 76q53 33 121 62q67 26 135 47q72 20 123 28q5 2 15 4.5t21 2.5q48 0 48 -43q0 -20 -9 -41q-14 -37 -63 -64q-5 -50 -13 -163t-8 -240q0 -165 21 -279q9 -82 60.5 -164.5t80.5 -95.5q12 -4 21 -4q41 0 80 31
q34 26 59 69t41 96.5t27 104.5q9 50 12 92q3 74 26 74q6 0 20 -5t21 -7q83 -42 182 -137t171 -191q7 -10 18 -10q12 0 26.5 13.5t22.5 29.5q49 46 63 96t27 135q21 183 21 318q0 107 -8 162t-13 73q-56 29 -65 74q-3 8 -7.5 24.5t-4.5 34.5q0 41 36 41q18 0 86 -4
q52 -6 111 -14q59 -11 111 -29q51 -20 86 -51q32 -31 32 -76q0 -79 -14 -205.5t-35.5 -250t-40.5 -183.5q-2 -11 -29.5 -123t-61.5 -242t-53 -199.5t-30 -107.5q-35 -114 -76 -202q-43 -88 -92 -142q-53 -53 -112 -53q-26 0 -31 18q4 27 4 97q-4 67 -18 147q-15 78 -39 160
q-27 80 -68 145q-43 66 -100 107q-13 9 -37 26t-43 25t-41 8q-17 0 -55 -71q-8 -17 -50 -102.5t-102 -212t-90 -189.5t-49 -107q-31 -53 -45 -53q-66 0 -109 41q-45 39 -76 104q-13 25 -49 148t-47 166q-28 113 -55.5 223.5t-54.5 243.5t-43.5 271.5t-16.5 262.5
q-7 2 -41.5 22t-38.5 23z" />
    <glyph glyph-name="x" unicode="x" horiz-adv-x="2032" 
d="M887 674q-57 -110 -170 -307q-51 -95 -107 -174q-57 -82 -118 -136q-27 -23 -81 -40t-89 -17q-26 45 -58 70.5t-79.5 58t-47.5 45.5q0 23 6 31q88 59 191 125q102 63 190 143q86 78 144 176q11 19 47.5 69t57 89t20.5 78q0 40 -20.5 73.5t-55 74.5t-49.5 67
q-58 98 -144 178q-88 80 -190 145q-42 27 -139.5 99t-120.5 86q0 18 13.5 32.5t39.5 36t34.5 35.5t21 25t32 24t41.5 29q53 41 116.5 64.5t123.5 23.5q96 0 167.5 -53t127.5 -133q53 -82 94 -176q39 -95 70.5 -175.5t60.5 -134.5q26 -53 55 -53q23 0 57 53q33 54 76 133
q41 80 92 174q52 95 109 175q55 79 116.5 132.5t125.5 53.5q36 0 77 -8q39 -11 74 -31q24 -18 61.5 -46.5t96.5 -53.5q-1 -5 -42 -32.5t-44 -27.5q-90 -59 -191 -125q-102 -65 -188 -143q-88 -80 -145 -178q-17 -29 -61 -80.5t-69.5 -91.5t-25.5 -78q0 -36 51.5 -109
t137.5 -179t100 -130q43 -39 87 -79t93 -72q28 -27 80 -27q50 0 110 29q2 -1 43 4q35 0 35 -8q-79 -70 -129 -136.5t-81 -123.5t-47 -87.5t-30 -35.5q-63 -25 -122 -25q-97 0 -168.5 54.5t-124.5 133.5q-56 80 -97 177q-41 94 -71 174q-33 79 -60 135q-26 53 -55 53
q-22 0 -55 -53z" />
    <glyph glyph-name="y" unicode="y" horiz-adv-x="1878" 
d="M1223 858v-594q69 -19 69 -82q0 -32 -43 -59q-44 -14 -180 -41q-15 -3 -37.5 -12.5t-44 -21.5t-50 -28t-34.5 -18q-35 -14 -80 -14q-52 0 -75 20q-41 28 -41 58q0 16 4 24q14 39 63 64v612q-26 20 -52.5 45.5t-56.5 60.5t-51 58q-99 103 -180 209q-72 88 -233 331
q-4 5 -25 10.5t-45 22.5t-53 62q-4 2 -4 10q0 7 5.5 20t10.5 17q28 31 206.5 121.5t305.5 152.5q39 0 45 -6q4 -3 33.5 -32t60.5 -61t33 -34q4 -8 4 -31q0 -30 -10 -49q-12 -20 -25 -39q-14 -18 -24 -41q-12 -24 -12 -63q0 -66 28 -150q27 -86 76 -161.5t115 -126.5
q65 -54 141 -54q84 0 150 37q65 35 112 92q45 58 70 131q24 74 24 150q0 65 -12 100t-27 60q-14 24 -26 49q-12 22 -12 65q0 45 22 78q21 31 55 51q33 21 74 29t78 8q104 0 168 -59q61 -62 61 -168q0 -74 -30.5 -152.5t-79.5 -156.5q-52 -78 -115 -152q-17 -24 -90 -101
t-147 -146t-119 -95z" />
    <glyph glyph-name="z" unicode="z" horiz-adv-x="1925" 
d="M1737 1872q9 6 28 6q28 -2 48 -15t20 -40q20 -48 20 -142q0 -109 -34 -139q-110 -98 -336.5 -309t-445.5 -437.5t-220 -291.5q0 -56 59.5 -88.5t110.5 -32.5q34 -6 119 -14.5t168 -8.5q168 0 268 39q37 15 67.5 34.5t50.5 36t32.5 25.5t25.5 9q41 0 41 -53q2 -17 2 -52
q0 -72 -12 -147t-41 -133q-21 -44 -145 -86q-136 -33 -357 -33q-94 0 -176 4t-257.5 17.5t-254 18.5t-135.5 5q-104 0 -133 -20q-59 -45 -98 -45q-31 0 -47.5 20.5t-18.5 36.5q-12 58 -12 115q0 50 7 99t11 68q32 99 192.5 273.5t353 351.5t340 303.5t210.5 177.5
q0 8 -69 20t-162 21.5t-212 16t-208 6.5q-128 0 -189 -10q-65 -24 -147 -97q-27 -14 -39 -14q-11 0 -15 8t-4.5 17.5t-1.5 15.5q9 81 26.5 151t36.5 126t19 59q12 29 47.5 65.5t77.5 51.5q17 7 80 4q149 0 739 -39q81 -6 146 -6q123 0 207 12t217 39z" />
    <glyph glyph-name="copyright" unicode="&#xa9;" horiz-adv-x="1802" 
d="M647 840q-27 -17 -73.5 -27t-81.5 -10q-60 0 -109 20q-51 21 -86 60q-37 37 -57 86q-21 51 -21 112q0 35 7 73.5t22 68.5q28 53 78 86q43 27 114 45q38 12 95 12q104 0 186 -51q-36 -54 -111 -154q-53 51 -127 51q-51 0 -80 -16q-32 -23 -41 -35q-11 -15 -24 -55
q-6 -31 -6 -66q0 -161 157 -161q60 6 105.5 24.5t95.5 75.5q4 2 12 2q6 0 20 -2t19 -2q0 -25 -32 -71.5t-62 -65.5zM1190 1317q-1 2 -4 7.5t-7 14.5t-5 11q-5 8 -5 22q33 0 58 -2q26 -4 44.5 -14t28.5 -31q11 -20 11 -53q0 -25 -11.5 -49.5t-29.5 -44.5q-23 -23 -43 -33
q-8 -4 -17 -9.5t-18 -9.5t-18 -6q0 -2 -1 -13.5t-2 -19.5q0 -24 9 -53q8 -26 20 -53q14 -29 31 -55q18 -27 37 -52q20 -24 39 -45q17 -17 39 -34q2 -2 4 -5.5t2 -9.5t-6 -12q-37 0 -76 14q-35 15 -64 37q-26 23 -49 51q-22 31 -43 64q-18 31 -37 63q-10 19 -39 66
q-45 -18 -104 -27v-223q-2 -5 -6.5 -12t-11.5 -12.5t-21 -8.5q-8 -4 -35 -4q-16 3 -28.5 14.5t-14.5 18.5l2 219q-33 9 -33 35q0 13 8 22t15 11v188l-10.5 9.5t-10.5 19.5t13 16q9 12 69 24.5t86 12.5q15 0 15 -8v-6q0 -9 -0.5 -14.5t-1.5 -12.5q-2 -14 -8 -27
q-7 -12 -17 -14v-168q20 0 74 14q33 9 61 27q29 17 58 43q26 29 55 66q8 11 8 22q0 14 -10 29zM1423 1145v141q-20 7 -20 29q0 10 14 18q4 2 15 7t18 8q13 5 41 10.5t45 5.5q25 0 25 -21q0 -17 -13 -24v-326q0 -9 -4.5 -12.5t-9.5 -3.5q-7 1 -15 1.5t-15.5 1t-12.5 1.5
q-17 2 -42.5 46.5t-25.5 102.5v15zM1436 864q0 25 17.5 43.5t43.5 18.5q25 0 43.5 -17.5t18.5 -44.5q0 -26 -18.5 -43.5t-43.5 -17.5q-26 0 -43.5 18.5t-17.5 42.5z" />
    <glyph glyph-name="Adieresis" unicode="&#xc4;" horiz-adv-x="2077" 
d="M946 1194q-35 27 -63 27q-31 0 -64 -27q-35 -27 -67 -68q-29 -27 -116 -178.5t-87 -179.5h649q0 54 -37 123.5t-82 142.5q-18 33 -63.5 88.5t-69.5 71.5zM494 1528q-33 10 -33 57q0 24 16 49t33 42t41 38q13 13 81.5 57.5t102.5 61.5q23 16 79 33.5t89 17.5
q61 -5 162 -86l84 78l117 -98q0 -6 -42 -41t-42 -43q67 -70 123 -163.5t98 -187.5q22 -39 92 -193.5t141 -311.5t174 -386t111 -249q6 -16 43 -64t37 -76q0 -36 -47 -63h-713q-24 19 -24 37q0 11 18 41q7 15 29.5 59.5t29.5 61.5q13 34 13 100q0 119 -11 168q-4 12 -11 40.5
t-12.5 43t-15.5 27.5h-796q-14 -68 -28.5 -188.5t-14.5 -272.5q0 -132 18 -275q-63 0 -131 35q-65 33 -115 88q-51 53 -81 121q-33 66 -33 131q1 13 2.5 24.5t2.5 18.5t3 16t4 19q16 40 39 98t48 112.5t38 69.5l-111 5q0 6 6.5 53.5t6.5 85.5q0 33 -4 47q15 0 45 -0.5
t67 -1.5q64 0 74 6q17 24 63.5 90t100 142.5t114.5 165.5t66 98q31 63 31 114q0 87 -33 107q-15 8 -65.5 22.5t-79.5 18.5zM246 2376q0 55 27.5 102t74.5 74.5t103 27.5q55 0 102 -27.5t74.5 -74.5t27.5 -102q0 -56 -27.5 -103t-74.5 -74.5t-102 -27.5q-56 0 -103 27.5
t-74.5 74.5t-27.5 103zM1147 2376q0 55 27.5 102t74.5 74.5t103 27.5q55 0 102 -27.5t74.5 -74.5t27.5 -102q0 -56 -27.5 -103t-74.5 -74.5t-102 -27.5q-56 0 -103 27.5t-74.5 74.5t-27.5 103z" />
    <glyph glyph-name="Odieresis" unicode="&#xd6;" horiz-adv-x="1837" 
d="M76 942q0 184 61 354q62 170 173.5 299t267.5 209q153 76 340 76q186 0 342 -76q155 -80 265.5 -209t172 -299t61.5 -354q0 -186 -61.5 -356t-171.5 -301q-111 -129 -266.5 -207t-341.5 -78q-187 0 -340 78q-156 78 -267 207q-112 131 -174 301q-61 170 -61 356z
M451 1073q0 -119 26 -219q27 -102 84 -174q55 -76 146 -115q88 -41 211 -41q124 0 212 41q89 39 146 115q55 72 82 174q26 100 26 219t-26.5 220.5t-81.5 176.5q-57 72 -146 113q-88 39 -212 39q-123 0 -211 -39q-91 -41 -146 -113q-57 -75 -84 -176q-26 -102 -26 -221z
M266 2376q0 55 27.5 102t74.5 74.5t103 27.5t103 -27.5t74.5 -74.5t27.5 -102q0 -56 -27.5 -103t-74.5 -74.5t-103 -27.5t-103 27.5t-74.5 74.5t-27.5 103zM1167 2376q0 55 28 102.5t75 74.5t102 27q56 0 103 -27.5t74.5 -74.5t27.5 -102q0 -56 -27.5 -103t-74.5 -74.5
t-103 -27.5q-55 0 -102 27t-75 74.5t-28 103.5z" />
    <glyph glyph-name="Udieresis" unicode="&#xdc;" horiz-adv-x="1894" 
d="M113 1753q75 48 204 86.5t179 44.5q24 0 37.5 -8t13.5 -31q0 -11 -10 -43q-18 -43 -66 -63v-959q0 -49 47.5 -106t117.5 -100.5t124 -53.5q63 -14 194 -14q151 0 191 14q24 10 63.5 32t83 52.5t85.5 77.5t53 98v959q-46 21 -62 63q-6 22 -6 39q0 43 45 43
q35 -4 111 -26.5t155 -53.5t115 -51q31 -22 31 -43q0 -84 -68 -100v-447q7 -10 22 -41.5t30.5 -103t15.5 -178.5q0 -29 -4 -99q-16 -81 -70 -170t-110.5 -159t-94.5 -111q-36 -39 -94 -96.5t-131.5 -111.5t-138.5 -68q-70 -23 -195 -23q-89 0 -179 12.5t-124 24.5
q-39 8 -158 107.5t-143 142.5q-100 93 -194.5 235t-94.5 219q-2 25 -2 78q0 127 17 227t49 115v447q-2 2 -15 12t-27 24t-22 29q-12 13 -12 29q0 24 37 49zM297 2376q0 55 27.5 102t74.5 74.5t103 27.5q55 0 102 -27t75 -74.5t28 -102.5q0 -56 -28 -103.5t-75 -74.5
t-102 -27q-56 0 -103 27.5t-74.5 74.5t-27.5 103zM1198 2376q0 55 27.5 102t74.5 74.5t103 27.5t103 -27.5t74.5 -74.5t27.5 -102q0 -56 -27.5 -103t-74.5 -74.5t-103 -27.5t-103 27.5t-74.5 74.5t-27.5 103z" />
    <glyph glyph-name="adieresis" unicode="&#xe4;" horiz-adv-x="2077" 
d="M946 1194q-35 27 -63 27q-31 0 -64 -27q-35 -27 -67 -68q-29 -27 -116 -178.5t-87 -179.5h649q0 54 -37 123.5t-82 142.5q-18 33 -63.5 88.5t-69.5 71.5zM494 1528q-33 10 -33 57q0 24 16 49t33 42t41 38q13 13 81.5 57.5t102.5 61.5q23 16 79 33.5t89 17.5
q61 -5 162 -86l84 78l117 -98q0 -6 -42 -41t-42 -43q67 -70 123 -163.5t98 -187.5q22 -39 92 -193.5t141 -311.5t174 -386t111 -249q6 -16 43 -64t37 -76q0 -36 -47 -63h-713q-24 19 -24 37q0 11 18 41q7 15 29.5 59.5t29.5 61.5q13 34 13 100q0 119 -11 168q-4 12 -11 40.5
t-12.5 43t-15.5 27.5h-796q-14 -68 -28.5 -188.5t-14.5 -272.5q0 -132 18 -275q-63 0 -131 35q-65 33 -115 88q-51 53 -81 121q-33 66 -33 131q1 13 2.5 24.5t2.5 18.5t3 16t4 19q16 40 39 98t48 112.5t38 69.5l-111 5q0 6 6.5 53.5t6.5 85.5q0 33 -4 47q15 0 45 -0.5
t67 -1.5q64 0 74 6q17 24 63.5 90t100 142.5t114.5 165.5t66 98q31 63 31 114q0 87 -33 107q-15 8 -65.5 22.5t-79.5 18.5zM246 2376q0 55 27.5 102t74.5 74.5t103 27.5q55 0 102 -27.5t74.5 -74.5t27.5 -102q0 -56 -27.5 -103t-74.5 -74.5t-102 -27.5q-56 0 -103 27.5
t-74.5 74.5t-27.5 103zM1147 2376q0 55 27.5 102t74.5 74.5t103 27.5q55 0 102 -27.5t74.5 -74.5t27.5 -102q0 -56 -27.5 -103t-74.5 -74.5t-102 -27.5q-56 0 -103 27.5t-74.5 74.5t-27.5 103z" />
    <glyph glyph-name="odieresis" unicode="&#xf6;" horiz-adv-x="1837" 
d="M76 942q0 184 61 354q62 170 173.5 299t267.5 209q153 76 340 76q186 0 342 -76q155 -80 265.5 -209t172 -299t61.5 -354q0 -186 -61.5 -356t-171.5 -301q-111 -129 -266.5 -207t-341.5 -78q-187 0 -340 78q-156 78 -267 207q-112 131 -174 301q-61 170 -61 356z
M451 1073q0 -119 26 -219q27 -102 84 -174q55 -76 146 -115q88 -41 211 -41q124 0 212 41q89 39 146 115q55 72 82 174q26 100 26 219t-26.5 220.5t-81.5 176.5q-57 72 -146 113q-88 39 -212 39q-123 0 -211 -39q-91 -41 -146 -113q-57 -75 -84 -176q-26 -102 -26 -221z
M266 2376q0 55 27.5 102t74.5 74.5t103 27.5t103 -27.5t74.5 -74.5t27.5 -102q0 -56 -27.5 -103t-74.5 -74.5t-103 -27.5t-103 27.5t-74.5 74.5t-27.5 103zM1167 2376q0 55 28 102.5t75 74.5t102 27q56 0 103 -27.5t74.5 -74.5t27.5 -102q0 -56 -27.5 -103t-74.5 -74.5
t-103 -27.5q-55 0 -102 27t-75 74.5t-28 103.5z" />
    <glyph glyph-name="udieresis" unicode="&#xfc;" horiz-adv-x="1894" 
d="M113 1753q75 48 204 86.5t179 44.5q24 0 37.5 -8t13.5 -31q0 -11 -10 -43q-18 -43 -66 -63v-959q0 -49 47.5 -106t117.5 -100.5t124 -53.5q63 -14 194 -14q151 0 191 14q24 10 63.5 32t83 52.5t85.5 77.5t53 98v959q-46 21 -62 63q-6 22 -6 39q0 43 45 43
q35 -4 111 -26.5t155 -53.5t115 -51q31 -22 31 -43q0 -84 -68 -100v-447q7 -10 22 -41.5t30.5 -103t15.5 -178.5q0 -29 -4 -99q-16 -81 -70 -170t-110.5 -159t-94.5 -111q-36 -39 -94 -96.5t-131.5 -111.5t-138.5 -68q-70 -23 -195 -23q-89 0 -179 12.5t-124 24.5
q-39 8 -158 107.5t-143 142.5q-100 93 -194.5 235t-94.5 219q-2 25 -2 78q0 127 17 227t49 115v447q-2 2 -15 12t-27 24t-22 29q-12 13 -12 29q0 24 37 49zM297 2376q0 55 27.5 102t74.5 74.5t103 27.5q55 0 102 -27t75 -74.5t28 -102.5q0 -56 -28 -103.5t-75 -74.5
t-102 -27q-56 0 -103 27.5t-74.5 74.5t-27.5 103zM1198 2376q0 55 27.5 102t74.5 74.5t103 27.5t103 -27.5t74.5 -74.5t27.5 -102q0 -56 -27.5 -103t-74.5 -74.5t-103 -27.5t-103 27.5t-74.5 74.5t-27.5 103z" />
    <glyph glyph-name="trademark" unicode="&#x2122;" horiz-adv-x="1802" 
d="M395 1214q-18 -12 -78 -12q-73 0 -84 12q-6 4 -6 17q0 18 35 29v450q-98 23 -129 23q-67 0 -90 -43v14q0 61 18 106q5 12 19.5 25.5t23.5 15.5q19 19 103 19q89 0 143 -19q75 -30 154 -30q37 0 69 8q30 7 62 29q0 -110 -37 -154q-41 -29 -111 -29q-43 0 -69 4v-376
q3 0 13.5 -9.5t10.5 -23.5q0 -6 -2 -10q0 -10 -15.5 -26.5t-29.5 -19.5zM1108 1610q-37 -50 -76.5 -84t-58.5 -47q-48 67 -88 99.5t-58 41.5v-356q21 -9 25 -23q4 -20 4 -27q0 -5 -3.5 -7t-6.5 -3q-11 1 -20 1.5t-25 0.5q-29 2 -53 13q-25 8 -41 26q-15 20 -15 51v35
q10 20 25 25v463q-15 4 -21 18q-8 8 -8 25q2 2 7 4t22 2q14 0 43 -6q14 -7 46 -29.5t81.5 -68.5t91.5 -103q1 1 43 34.5t73.5 72.5t32.5 79q0 6 -3 10.5t-3 2.5q2 2 21 2q25 0 41 -19q16 -18 30 -49q21 -33 33 -63q17 -41 31 -84q31 -91 47 -164q8 -37 14 -62q4 -24 4 -32
q0 -37 -16 -76q-18 -41 -47 -76q-31 -35 -68 -57q-36 -23 -75 -23q0 21 4 35q1 5 9.5 13.5t12.5 15.5q11 59 11 122q0 49 -6 90.5t-12.5 65t-10.5 35.5q-21 57 -37 76z" />
  </font>
</defs>
</svg>
